<svg width="1026" height="103" viewBox="0 0 1026 103" fill="none" xmlns="http://www.w3.org/2000/svg">
<path d="M451.16 48V14.4H457.4V42.24H472.904V48H451.16ZM489.61 48.48C487.082 48.48 484.826 47.92 482.842 46.8C480.858 45.648 479.29 44.08 478.138 42.096C476.986 40.112 476.41 37.856 476.41 35.328C476.41 32.8 476.986 30.544 478.138 28.56C479.29 26.576 480.858 25.024 482.842 23.904C484.826 22.752 487.082 22.176 489.61 22.176C492.106 22.176 494.346 22.752 496.33 23.904C498.314 25.024 499.866 26.576 500.986 28.56C502.138 30.544 502.714 32.8 502.714 35.328C502.714 37.856 502.138 40.112 500.986 42.096C499.866 44.08 498.314 45.648 496.33 46.8C494.346 47.92 492.106 48.48 489.61 48.48ZM489.61 43.248C490.986 43.248 492.202 42.896 493.258 42.192C494.346 41.488 495.194 40.544 495.802 39.36C496.442 38.176 496.746 36.832 496.714 35.328C496.746 33.792 496.442 32.432 495.802 31.248C495.194 30.064 494.346 29.136 493.258 28.464C492.202 27.76 490.986 27.408 489.61 27.408C488.234 27.408 486.986 27.76 485.866 28.464C484.778 29.136 483.93 30.08 483.322 31.296C482.714 32.48 482.41 33.824 482.41 35.328C482.41 36.832 482.714 38.176 483.322 39.36C483.93 40.544 484.778 41.488 485.866 42.192C486.986 42.896 488.234 43.248 489.61 43.248ZM519.371 59.04C517.483 59.04 515.595 58.752 513.707 58.176C511.851 57.6 510.347 56.848 509.195 55.92L511.307 51.552C511.979 52.032 512.731 52.448 513.563 52.8C514.395 53.152 515.275 53.424 516.203 53.616C517.163 53.808 518.107 53.904 519.035 53.904C520.731 53.904 522.139 53.632 523.259 53.088C524.411 52.576 525.275 51.776 525.851 50.688C526.427 49.632 526.715 48.304 526.715 46.704V42.048L527.579 42.384C527.387 43.376 526.859 44.32 525.995 45.216C525.131 46.112 524.043 46.848 522.731 47.424C521.419 47.968 520.075 48.24 518.699 48.24C516.299 48.24 514.171 47.68 512.315 46.56C510.491 45.44 509.035 43.92 507.947 42C506.891 40.048 506.363 37.808 506.363 35.28C506.363 32.752 506.891 30.512 507.947 28.56C509.003 26.576 510.443 25.024 512.267 23.904C514.123 22.752 516.203 22.176 518.507 22.176C519.467 22.176 520.395 22.288 521.291 22.512C522.187 22.736 523.003 23.056 523.739 23.472C524.507 23.888 525.195 24.352 525.803 24.864C526.411 25.376 526.907 25.92 527.291 26.496C527.675 27.072 527.915 27.632 528.011 28.176L526.763 28.56L526.859 22.704H532.667V46.272C532.667 48.32 532.363 50.128 531.755 51.696C531.147 53.264 530.267 54.592 529.115 55.68C527.963 56.8 526.571 57.632 524.939 58.176C523.307 58.752 521.451 59.04 519.371 59.04ZM519.611 43.2C521.051 43.2 522.315 42.864 523.403 42.192C524.523 41.52 525.387 40.592 525.995 39.408C526.603 38.224 526.907 36.864 526.907 35.328C526.907 33.76 526.587 32.384 525.947 31.2C525.339 29.984 524.491 29.04 523.403 28.368C522.315 27.696 521.051 27.36 519.611 27.36C518.171 27.36 516.907 27.712 515.819 28.416C514.731 29.088 513.867 30.032 513.227 31.248C512.619 32.432 512.315 33.792 512.315 35.328C512.315 36.832 512.619 38.192 513.227 39.408C513.867 40.592 514.731 41.52 515.819 42.192C516.907 42.864 518.171 43.2 519.611 43.2ZM540.167 48V22.704H546.071V48H540.167ZM543.047 17.328C541.863 17.328 540.935 17.04 540.263 16.464C539.623 15.856 539.303 15.008 539.303 13.92C539.303 12.896 539.639 12.064 540.311 11.424C540.983 10.784 541.895 10.464 543.047 10.464C544.263 10.464 545.191 10.768 545.831 11.376C546.503 11.952 546.839 12.8 546.839 13.92C546.839 14.912 546.503 15.728 545.831 16.368C545.159 17.008 544.231 17.328 543.047 17.328ZM553.558 48V22.704H559.318L559.414 27.888L558.31 28.464C558.63 27.312 559.254 26.272 560.182 25.344C561.11 24.384 562.214 23.616 563.494 23.04C564.774 22.464 566.086 22.176 567.43 22.176C569.35 22.176 570.95 22.56 572.23 23.328C573.542 24.096 574.518 25.248 575.158 26.784C575.83 28.32 576.166 30.24 576.166 32.544V48H570.262V32.976C570.262 31.696 570.086 30.64 569.734 29.808C569.382 28.944 568.838 28.32 568.102 27.936C567.366 27.52 566.47 27.328 565.414 27.36C564.55 27.36 563.75 27.504 563.014 27.792C562.31 28.048 561.686 28.432 561.142 28.944C560.63 29.424 560.214 29.984 559.894 30.624C559.606 31.264 559.462 31.968 559.462 32.736V48H556.534C555.958 48 555.414 48 554.902 48C554.422 48 553.974 48 553.558 48Z" fill="#CAFF33"/>
<path d="M294.507 98L290.709 85.4H292.221L294.651 93.716C294.747 94.004 294.825 94.28 294.885 94.544C294.957 94.796 295.017 95.042 295.065 95.282C295.113 95.51 295.161 95.744 295.209 95.984C295.257 96.212 295.305 96.452 295.353 96.704L295.047 96.686C295.203 96.134 295.329 95.696 295.425 95.372C295.533 95.048 295.635 94.76 295.731 94.508C295.827 94.256 295.935 93.968 296.055 93.644L298.179 88.298H299.493L301.635 93.698C301.779 94.034 301.905 94.352 302.013 94.652C302.121 94.952 302.223 95.258 302.319 95.57C302.427 95.882 302.529 96.23 302.625 96.614L302.337 96.668C302.397 96.368 302.445 96.122 302.481 95.93C302.517 95.738 302.553 95.57 302.589 95.426C302.625 95.27 302.661 95.12 302.697 94.976C302.733 94.82 302.781 94.64 302.841 94.436C302.901 94.22 302.979 93.95 303.075 93.626L305.505 85.4H307.017L303.183 98H302.013L298.611 89.9L298.935 89.954L295.659 98H294.507ZM312.447 98.18C311.511 98.18 310.677 97.976 309.945 97.568C309.225 97.16 308.661 96.59 308.253 95.858C307.845 95.126 307.641 94.286 307.641 93.338C307.641 92.606 307.755 91.946 307.983 91.358C308.211 90.758 308.529 90.236 308.937 89.792C309.357 89.348 309.855 89.006 310.431 88.766C311.007 88.514 311.631 88.388 312.303 88.388C312.939 88.388 313.515 88.502 314.031 88.73C314.559 88.958 315.009 89.276 315.381 89.684C315.765 90.08 316.053 90.554 316.245 91.106C316.437 91.658 316.521 92.264 316.497 92.924L316.479 93.554H308.649L308.451 92.42H315.453L315.129 92.726V92.294C315.105 91.862 314.979 91.448 314.751 91.052C314.523 90.644 314.199 90.314 313.779 90.062C313.371 89.81 312.879 89.684 312.303 89.684C311.631 89.684 311.049 89.822 310.557 90.098C310.065 90.362 309.687 90.758 309.423 91.286C309.159 91.814 309.027 92.468 309.027 93.248C309.027 93.992 309.171 94.64 309.459 95.192C309.747 95.732 310.155 96.152 310.683 96.452C311.223 96.752 311.871 96.902 312.627 96.902C313.071 96.902 313.509 96.83 313.941 96.686C314.385 96.53 314.871 96.23 315.399 95.786L316.101 96.758C315.825 97.034 315.495 97.28 315.111 97.496C314.727 97.7 314.307 97.868 313.851 98C313.395 98.12 312.927 98.18 312.447 98.18ZM318.451 98V84.68H319.801V98H318.451ZM326.242 98.18C325.354 98.18 324.562 97.97 323.866 97.55C323.17 97.118 322.618 96.536 322.21 95.804C321.814 95.06 321.616 94.22 321.616 93.284C321.616 92.348 321.814 91.514 322.21 90.782C322.618 90.038 323.17 89.456 323.866 89.036C324.562 88.616 325.36 88.406 326.26 88.406C327.064 88.406 327.796 88.568 328.456 88.892C329.116 89.204 329.644 89.642 330.04 90.206L329.248 91.178C329.02 90.878 328.744 90.614 328.42 90.386C328.108 90.158 327.766 89.984 327.394 89.864C327.034 89.732 326.674 89.666 326.314 89.666C325.678 89.666 325.108 89.828 324.604 90.152C324.1 90.464 323.698 90.89 323.398 91.43C323.11 91.97 322.966 92.588 322.966 93.284C322.966 93.98 323.11 94.604 323.398 95.156C323.698 95.696 324.1 96.122 324.604 96.434C325.108 96.746 325.672 96.902 326.296 96.902C326.656 96.902 327.01 96.848 327.358 96.74C327.706 96.62 328.036 96.452 328.348 96.236C328.66 96.02 328.948 95.75 329.212 95.426L330.004 96.398C329.596 96.938 329.05 97.37 328.366 97.694C327.682 98.018 326.974 98.18 326.242 98.18ZM335.914 98.18C334.978 98.18 334.144 97.97 333.412 97.55C332.692 97.13 332.122 96.548 331.702 95.804C331.294 95.06 331.09 94.214 331.09 93.266C331.09 92.33 331.294 91.496 331.702 90.764C332.122 90.032 332.692 89.456 333.412 89.036C334.144 88.616 334.978 88.406 335.914 88.406C336.838 88.406 337.66 88.616 338.38 89.036C339.112 89.456 339.682 90.032 340.09 90.764C340.51 91.496 340.72 92.33 340.72 93.266C340.72 94.214 340.51 95.06 340.09 95.804C339.682 96.548 339.112 97.13 338.38 97.55C337.66 97.97 336.838 98.18 335.914 98.18ZM335.914 96.902C336.574 96.902 337.162 96.746 337.678 96.434C338.194 96.11 338.596 95.678 338.884 95.138C339.172 94.586 339.316 93.962 339.316 93.266C339.316 92.57 339.172 91.952 338.884 91.412C338.596 90.872 338.194 90.452 337.678 90.152C337.162 89.84 336.574 89.684 335.914 89.684C335.254 89.684 334.66 89.84 334.132 90.152C333.616 90.452 333.208 90.878 332.908 91.43C332.62 91.97 332.482 92.582 332.494 93.266C332.482 93.962 332.62 94.586 332.908 95.138C333.208 95.678 333.616 96.11 334.132 96.434C334.66 96.746 335.254 96.902 335.914 96.902ZM342.672 98V88.604H344.022L344.058 90.746L343.788 90.836C343.884 90.476 344.04 90.152 344.256 89.864C344.484 89.564 344.754 89.306 345.066 89.09C345.378 88.874 345.72 88.712 346.092 88.604C346.464 88.484 346.854 88.424 347.262 88.424C347.754 88.424 348.192 88.508 348.576 88.676C348.972 88.832 349.302 89.108 349.566 89.504C349.842 89.888 350.052 90.398 350.196 91.034L349.872 90.872L349.998 90.566C350.118 90.29 350.292 90.026 350.52 89.774C350.76 89.51 351.03 89.276 351.33 89.072C351.642 88.868 351.978 88.712 352.338 88.604C352.71 88.484 353.088 88.424 353.472 88.424C354.132 88.424 354.69 88.568 355.146 88.856C355.602 89.132 355.944 89.558 356.172 90.134C356.412 90.71 356.532 91.442 356.532 92.33V98H355.146V92.402C355.146 91.778 355.068 91.268 354.912 90.872C354.756 90.476 354.522 90.182 354.21 89.99C353.91 89.786 353.526 89.684 353.058 89.684C352.65 89.684 352.272 89.756 351.924 89.9C351.588 90.032 351.294 90.224 351.042 90.476C350.802 90.716 350.61 90.992 350.466 91.304C350.334 91.616 350.268 91.952 350.268 92.312V98H348.9V92.384C348.9 91.784 348.816 91.286 348.648 90.89C348.492 90.494 348.258 90.194 347.946 89.99C347.634 89.786 347.25 89.684 346.794 89.684C346.398 89.684 346.032 89.756 345.696 89.9C345.36 90.032 345.066 90.218 344.814 90.458C344.574 90.698 344.382 90.974 344.238 91.286C344.106 91.598 344.04 91.934 344.04 92.294V98H342.672ZM363.23 98.18C362.294 98.18 361.46 97.976 360.728 97.568C360.008 97.16 359.444 96.59 359.036 95.858C358.628 95.126 358.424 94.286 358.424 93.338C358.424 92.606 358.538 91.946 358.766 91.358C358.994 90.758 359.312 90.236 359.72 89.792C360.14 89.348 360.638 89.006 361.214 88.766C361.79 88.514 362.414 88.388 363.086 88.388C363.722 88.388 364.298 88.502 364.814 88.73C365.342 88.958 365.792 89.276 366.164 89.684C366.548 90.08 366.836 90.554 367.028 91.106C367.22 91.658 367.304 92.264 367.28 92.924L367.262 93.554H359.432L359.234 92.42H366.236L365.912 92.726V92.294C365.888 91.862 365.762 91.448 365.534 91.052C365.306 90.644 364.982 90.314 364.562 90.062C364.154 89.81 363.662 89.684 363.086 89.684C362.414 89.684 361.832 89.822 361.34 90.098C360.848 90.362 360.47 90.758 360.206 91.286C359.942 91.814 359.81 92.468 359.81 93.248C359.81 93.992 359.954 94.64 360.242 95.192C360.53 95.732 360.938 96.152 361.466 96.452C362.006 96.752 362.654 96.902 363.41 96.902C363.854 96.902 364.292 96.83 364.724 96.686C365.168 96.53 365.654 96.23 366.182 95.786L366.884 96.758C366.608 97.034 366.278 97.28 365.894 97.496C365.51 97.7 365.09 97.868 364.634 98C364.178 98.12 363.71 98.18 363.23 98.18ZM379.013 98.18C378.569 98.18 378.137 98.114 377.717 97.982C377.297 97.838 376.913 97.646 376.565 97.406C376.229 97.166 375.941 96.89 375.701 96.578C375.473 96.266 375.317 95.942 375.233 95.606L375.629 95.624L375.575 97.982H374.243V84.68H375.593V90.854L375.323 90.926C375.407 90.59 375.557 90.272 375.773 89.972C376.001 89.66 376.283 89.39 376.619 89.162C376.955 88.922 377.321 88.736 377.717 88.604C378.125 88.472 378.545 88.406 378.977 88.406C379.817 88.406 380.567 88.616 381.227 89.036C381.899 89.456 382.433 90.032 382.829 90.764C383.225 91.496 383.423 92.336 383.423 93.284C383.423 94.232 383.231 95.078 382.847 95.822C382.463 96.554 381.935 97.13 381.263 97.55C380.603 97.97 379.853 98.18 379.013 98.18ZM378.797 96.902C379.433 96.902 379.997 96.746 380.489 96.434C380.981 96.11 381.365 95.678 381.641 95.138C381.929 94.586 382.073 93.968 382.073 93.284C382.073 92.588 381.929 91.97 381.641 91.43C381.365 90.89 380.981 90.464 380.489 90.152C379.997 89.84 379.433 89.684 378.797 89.684C378.161 89.684 377.597 89.84 377.105 90.152C376.613 90.464 376.223 90.89 375.935 91.43C375.659 91.97 375.521 92.588 375.521 93.284C375.521 93.98 375.659 94.604 375.935 95.156C376.223 95.696 376.613 96.122 377.105 96.434C377.597 96.746 378.161 96.902 378.797 96.902ZM389.059 98.18C388.243 98.18 387.505 97.97 386.845 97.55C386.185 97.118 385.663 96.536 385.279 95.804C384.895 95.06 384.703 94.22 384.703 93.284C384.703 92.336 384.901 91.496 385.297 90.764C385.693 90.032 386.221 89.456 386.881 89.036C387.553 88.616 388.303 88.406 389.131 88.406C389.623 88.406 390.079 88.478 390.499 88.622C390.919 88.766 391.291 88.97 391.615 89.234C391.951 89.486 392.227 89.786 392.443 90.134C392.671 90.47 392.827 90.836 392.911 91.232L392.515 91.034L392.569 88.604H393.919V98H392.551V95.696L392.911 95.462C392.827 95.822 392.665 96.17 392.425 96.506C392.185 96.83 391.891 97.118 391.543 97.37C391.207 97.622 390.823 97.82 390.391 97.964C389.971 98.108 389.527 98.18 389.059 98.18ZM389.365 96.884C389.989 96.884 390.547 96.734 391.039 96.434C391.531 96.122 391.915 95.696 392.191 95.156C392.479 94.604 392.623 93.98 392.623 93.284C392.623 92.588 392.479 91.97 392.191 91.43C391.915 90.89 391.531 90.464 391.039 90.152C390.547 89.84 389.989 89.684 389.365 89.684C388.729 89.684 388.165 89.84 387.673 90.152C387.193 90.464 386.809 90.89 386.521 91.43C386.245 91.97 386.107 92.588 386.107 93.284C386.107 93.968 386.245 94.586 386.521 95.138C386.797 95.678 387.181 96.104 387.673 96.416C388.165 96.728 388.729 96.884 389.365 96.884ZM400.509 98.18C399.621 98.18 398.829 97.97 398.133 97.55C397.437 97.118 396.885 96.536 396.477 95.804C396.081 95.06 395.883 94.22 395.883 93.284C395.883 92.348 396.081 91.514 396.477 90.782C396.885 90.038 397.437 89.456 398.133 89.036C398.829 88.616 399.627 88.406 400.527 88.406C401.331 88.406 402.063 88.568 402.723 88.892C403.383 89.204 403.911 89.642 404.307 90.206L403.515 91.178C403.287 90.878 403.011 90.614 402.687 90.386C402.375 90.158 402.033 89.984 401.661 89.864C401.301 89.732 400.941 89.666 400.581 89.666C399.945 89.666 399.375 89.828 398.871 90.152C398.367 90.464 397.965 90.89 397.665 91.43C397.377 91.97 397.233 92.588 397.233 93.284C397.233 93.98 397.377 94.604 397.665 95.156C397.965 95.696 398.367 96.122 398.871 96.434C399.375 96.746 399.939 96.902 400.563 96.902C400.923 96.902 401.277 96.848 401.625 96.74C401.973 96.62 402.303 96.452 402.615 96.236C402.927 96.02 403.215 95.75 403.479 95.426L404.271 96.398C403.863 96.938 403.317 97.37 402.633 97.694C401.949 98.018 401.241 98.18 400.509 98.18ZM407.23 94.976L407.176 93.41L412.09 88.604H413.908L407.23 94.976ZM406.024 98V84.68H407.374V98H406.024ZM412.468 98L408.508 93.41L409.462 92.474L414.232 98H412.468ZM416.214 93.662C416.13 92.906 416.064 92.126 416.016 91.322C415.968 90.506 415.932 89.702 415.908 88.91C415.884 88.118 415.872 87.368 415.872 86.66V85.4H417.33V86.66C417.33 87.404 417.318 88.184 417.294 89C417.27 89.816 417.228 90.626 417.168 91.43C417.12 92.222 417.054 92.966 416.97 93.662H416.214ZM416.538 98.18C416.214 98.18 415.962 98.084 415.782 97.892C415.614 97.7 415.53 97.424 415.53 97.064C415.53 96.74 415.62 96.476 415.8 96.272C415.992 96.056 416.238 95.948 416.538 95.948C416.862 95.948 417.108 96.05 417.276 96.254C417.456 96.446 417.546 96.716 417.546 97.064C417.546 97.4 417.45 97.67 417.258 97.874C417.078 98.078 416.838 98.18 416.538 98.18ZM425.654 98V85.4H430.64C431.3 85.4 431.894 85.562 432.422 85.886C432.95 86.21 433.37 86.66 433.682 87.236C433.994 87.8 434.15 88.436 434.15 89.144C434.15 89.888 433.994 90.554 433.682 91.142C433.37 91.718 432.95 92.18 432.422 92.528C431.894 92.864 431.3 93.032 430.64 93.032H427.058V98H425.654ZM427.058 91.664H430.712C431.084 91.664 431.414 91.556 431.702 91.34C432.002 91.112 432.242 90.812 432.422 90.44C432.602 90.056 432.692 89.618 432.692 89.126C432.692 88.682 432.602 88.286 432.422 87.938C432.242 87.578 432.002 87.296 431.702 87.092C431.414 86.876 431.084 86.768 430.712 86.768H427.058V91.664ZM436.347 98V84.68H437.697V98H436.347ZM444.318 98.18C443.382 98.18 442.548 97.976 441.816 97.568C441.096 97.16 440.532 96.59 440.124 95.858C439.716 95.126 439.512 94.286 439.512 93.338C439.512 92.606 439.626 91.946 439.854 91.358C440.082 90.758 440.4 90.236 440.808 89.792C441.228 89.348 441.726 89.006 442.302 88.766C442.878 88.514 443.502 88.388 444.174 88.388C444.81 88.388 445.386 88.502 445.902 88.73C446.43 88.958 446.88 89.276 447.252 89.684C447.636 90.08 447.924 90.554 448.116 91.106C448.308 91.658 448.392 92.264 448.368 92.924L448.35 93.554H440.52L440.322 92.42H447.324L447 92.726V92.294C446.976 91.862 446.85 91.448 446.622 91.052C446.394 90.644 446.07 90.314 445.65 90.062C445.242 89.81 444.75 89.684 444.174 89.684C443.502 89.684 442.92 89.822 442.428 90.098C441.936 90.362 441.558 90.758 441.294 91.286C441.03 91.814 440.898 92.468 440.898 93.248C440.898 93.992 441.042 94.64 441.33 95.192C441.618 95.732 442.026 96.152 442.554 96.452C443.094 96.752 443.742 96.902 444.498 96.902C444.942 96.902 445.38 96.83 445.812 96.686C446.256 96.53 446.742 96.23 447.27 95.786L447.972 96.758C447.696 97.034 447.366 97.28 446.982 97.496C446.598 97.7 446.178 97.868 445.722 98C445.266 98.12 444.798 98.18 444.318 98.18ZM453.958 98.18C453.142 98.18 452.404 97.97 451.744 97.55C451.084 97.118 450.562 96.536 450.178 95.804C449.794 95.06 449.602 94.22 449.602 93.284C449.602 92.336 449.8 91.496 450.196 90.764C450.592 90.032 451.12 89.456 451.78 89.036C452.452 88.616 453.202 88.406 454.03 88.406C454.522 88.406 454.978 88.478 455.398 88.622C455.818 88.766 456.19 88.97 456.514 89.234C456.85 89.486 457.126 89.786 457.342 90.134C457.57 90.47 457.726 90.836 457.81 91.232L457.414 91.034L457.468 88.604H458.818V98H457.45V95.696L457.81 95.462C457.726 95.822 457.564 96.17 457.324 96.506C457.084 96.83 456.79 97.118 456.442 97.37C456.106 97.622 455.722 97.82 455.29 97.964C454.87 98.108 454.426 98.18 453.958 98.18ZM454.264 96.884C454.888 96.884 455.446 96.734 455.938 96.434C456.43 96.122 456.814 95.696 457.09 95.156C457.378 94.604 457.522 93.98 457.522 93.284C457.522 92.588 457.378 91.97 457.09 91.43C456.814 90.89 456.43 90.464 455.938 90.152C455.446 89.84 454.888 89.684 454.264 89.684C453.628 89.684 453.064 89.84 452.572 90.152C452.092 90.464 451.708 90.89 451.42 91.43C451.144 91.97 451.006 92.588 451.006 93.284C451.006 93.968 451.144 94.586 451.42 95.138C451.696 95.678 452.08 96.104 452.572 96.416C453.064 96.728 453.628 96.884 454.264 96.884ZM464.526 98.18C463.722 98.18 463.002 98.03 462.366 97.73C461.73 97.43 461.226 97.034 460.854 96.542L461.808 95.714C462.156 96.134 462.564 96.452 463.032 96.668C463.512 96.884 464.046 96.992 464.634 96.992C464.934 96.992 465.204 96.962 465.444 96.902C465.684 96.83 465.894 96.728 466.074 96.596C466.254 96.464 466.392 96.308 466.488 96.128C466.584 95.948 466.632 95.75 466.632 95.534C466.632 95.138 466.458 94.808 466.11 94.544C465.954 94.436 465.732 94.328 465.444 94.22C465.156 94.1 464.808 93.986 464.4 93.878C463.728 93.686 463.17 93.494 462.726 93.302C462.282 93.098 461.934 92.864 461.682 92.6C461.502 92.384 461.364 92.15 461.268 91.898C461.184 91.646 461.142 91.37 461.142 91.07C461.142 90.686 461.22 90.332 461.376 90.008C461.544 89.684 461.772 89.402 462.06 89.162C462.36 88.91 462.708 88.724 463.104 88.604C463.512 88.472 463.95 88.406 464.418 88.406C464.862 88.406 465.3 88.466 465.732 88.586C466.164 88.706 466.566 88.88 466.938 89.108C467.31 89.336 467.628 89.606 467.892 89.918L467.064 90.818C466.836 90.578 466.584 90.362 466.308 90.17C466.032 89.978 465.738 89.828 465.426 89.72C465.126 89.612 464.814 89.558 464.49 89.558C464.202 89.558 463.932 89.594 463.68 89.666C463.44 89.738 463.23 89.84 463.05 89.972C462.882 90.092 462.75 90.242 462.654 90.422C462.57 90.602 462.528 90.8 462.528 91.016C462.528 91.196 462.564 91.358 462.636 91.502C462.708 91.646 462.81 91.772 462.942 91.88C463.11 92.012 463.344 92.138 463.644 92.258C463.956 92.366 464.34 92.48 464.796 92.6C465.324 92.744 465.768 92.894 466.128 93.05C466.5 93.194 466.806 93.368 467.046 93.572C467.37 93.812 467.598 94.088 467.73 94.4C467.874 94.712 467.946 95.066 467.946 95.462C467.946 95.99 467.796 96.458 467.496 96.866C467.208 97.274 466.806 97.598 466.29 97.838C465.774 98.066 465.186 98.18 464.526 98.18ZM474.201 98.18C473.265 98.18 472.431 97.976 471.699 97.568C470.979 97.16 470.415 96.59 470.007 95.858C469.599 95.126 469.395 94.286 469.395 93.338C469.395 92.606 469.509 91.946 469.737 91.358C469.965 90.758 470.283 90.236 470.691 89.792C471.111 89.348 471.609 89.006 472.185 88.766C472.761 88.514 473.385 88.388 474.057 88.388C474.693 88.388 475.269 88.502 475.785 88.73C476.313 88.958 476.763 89.276 477.135 89.684C477.519 90.08 477.807 90.554 477.999 91.106C478.191 91.658 478.275 92.264 478.251 92.924L478.233 93.554H470.403L470.205 92.42H477.207L476.883 92.726V92.294C476.859 91.862 476.733 91.448 476.505 91.052C476.277 90.644 475.953 90.314 475.533 90.062C475.125 89.81 474.633 89.684 474.057 89.684C473.385 89.684 472.803 89.822 472.311 90.098C471.819 90.362 471.441 90.758 471.177 91.286C470.913 91.814 470.781 92.468 470.781 93.248C470.781 93.992 470.925 94.64 471.213 95.192C471.501 95.732 471.909 96.152 472.437 96.452C472.977 96.752 473.625 96.902 474.381 96.902C474.825 96.902 475.263 96.83 475.695 96.686C476.139 96.53 476.625 96.23 477.153 95.786L477.855 96.758C477.579 97.034 477.249 97.28 476.865 97.496C476.481 97.7 476.061 97.868 475.605 98C475.149 98.12 474.681 98.18 474.201 98.18ZM485.249 98V84.68H486.599V98H485.249ZM493.239 98.18C492.303 98.18 491.469 97.97 490.737 97.55C490.017 97.13 489.447 96.548 489.027 95.804C488.619 95.06 488.415 94.214 488.415 93.266C488.415 92.33 488.619 91.496 489.027 90.764C489.447 90.032 490.017 89.456 490.737 89.036C491.469 88.616 492.303 88.406 493.239 88.406C494.163 88.406 494.985 88.616 495.705 89.036C496.437 89.456 497.007 90.032 497.415 90.764C497.835 91.496 498.045 92.33 498.045 93.266C498.045 94.214 497.835 95.06 497.415 95.804C497.007 96.548 496.437 97.13 495.705 97.55C494.985 97.97 494.163 98.18 493.239 98.18ZM493.239 96.902C493.899 96.902 494.487 96.746 495.003 96.434C495.519 96.11 495.921 95.678 496.209 95.138C496.497 94.586 496.641 93.962 496.641 93.266C496.641 92.57 496.497 91.952 496.209 91.412C495.921 90.872 495.519 90.452 495.003 90.152C494.487 89.84 493.899 89.684 493.239 89.684C492.579 89.684 491.985 89.84 491.457 90.152C490.941 90.452 490.533 90.878 490.233 91.43C489.945 91.97 489.807 92.582 489.819 93.266C489.807 93.962 489.945 94.586 490.233 95.138C490.533 95.678 490.941 96.11 491.457 96.434C491.985 96.746 492.579 96.902 493.239 96.902ZM504.064 102.14C503.368 102.14 502.708 102.032 502.084 101.816C501.46 101.6 500.944 101.33 500.536 101.006L501.076 99.872C501.316 100.064 501.592 100.232 501.904 100.376C502.228 100.532 502.576 100.652 502.948 100.736C503.32 100.832 503.698 100.88 504.082 100.88C504.778 100.88 505.366 100.748 505.846 100.484C506.338 100.232 506.71 99.854 506.962 99.35C507.226 98.846 507.358 98.222 507.358 97.478V95.678L507.574 95.624C507.466 96.08 507.232 96.506 506.872 96.902C506.512 97.286 506.074 97.598 505.558 97.838C505.042 98.066 504.496 98.18 503.92 98.18C503.044 98.18 502.258 97.97 501.562 97.55C500.878 97.13 500.338 96.554 499.942 95.822C499.546 95.078 499.348 94.238 499.348 93.302C499.348 92.354 499.546 91.514 499.942 90.782C500.35 90.038 500.896 89.456 501.58 89.036C502.264 88.616 503.032 88.406 503.884 88.406C504.256 88.406 504.616 88.454 504.964 88.55C505.312 88.634 505.63 88.76 505.918 88.928C506.218 89.096 506.488 89.288 506.728 89.504C506.968 89.72 507.166 89.954 507.322 90.206C507.49 90.458 507.61 90.716 507.682 90.98L507.304 90.926L507.358 88.604H508.708V97.424C508.708 98.18 508.6 98.846 508.384 99.422C508.168 100.01 507.85 100.502 507.43 100.898C507.022 101.306 506.53 101.612 505.954 101.816C505.39 102.032 504.76 102.14 504.064 102.14ZM504.082 96.884C504.718 96.884 505.282 96.734 505.774 96.434C506.278 96.122 506.674 95.696 506.962 95.156C507.25 94.616 507.394 93.992 507.394 93.284C507.394 92.588 507.25 91.97 506.962 91.43C506.686 90.89 506.296 90.464 505.792 90.152C505.288 89.84 504.718 89.684 504.082 89.684C503.434 89.684 502.858 89.84 502.354 90.152C501.862 90.464 501.472 90.89 501.184 91.43C500.896 91.97 500.752 92.588 500.752 93.284C500.752 93.968 500.89 94.586 501.166 95.138C501.454 95.678 501.844 96.104 502.336 96.416C502.84 96.728 503.422 96.884 504.082 96.884ZM516.739 98V88.604H518.089V98H516.739ZM517.405 86.57C517.069 86.57 516.811 86.486 516.631 86.318C516.463 86.138 516.379 85.898 516.379 85.598C516.379 85.298 516.469 85.058 516.649 84.878C516.829 84.698 517.081 84.608 517.405 84.608C517.729 84.608 517.981 84.698 518.161 84.878C518.341 85.046 518.431 85.286 518.431 85.598C518.431 85.886 518.341 86.12 518.161 86.3C517.981 86.48 517.729 86.57 517.405 86.57ZM521.038 98V88.604H522.37L522.424 90.566L522.208 90.656C522.328 90.248 522.562 89.876 522.91 89.54C523.258 89.204 523.672 88.934 524.152 88.73C524.644 88.514 525.148 88.406 525.664 88.406C526.36 88.406 526.942 88.544 527.41 88.82C527.878 89.096 528.232 89.522 528.472 90.098C528.712 90.674 528.832 91.406 528.832 92.294V98H527.464V92.366C527.464 91.742 527.38 91.232 527.212 90.836C527.056 90.428 526.81 90.128 526.474 89.936C526.138 89.744 525.724 89.654 525.232 89.666C524.824 89.666 524.446 89.738 524.098 89.882C523.75 90.014 523.45 90.2 523.198 90.44C522.946 90.68 522.748 90.956 522.604 91.268C522.46 91.58 522.388 91.916 522.388 92.276V98H521.722C521.638 98 521.542 98 521.434 98C521.326 98 521.194 98 521.038 98ZM537.75 98V86.138H539.1V98H537.75ZM535.626 89.9V88.604H541.476V89.9H535.626ZM547.203 98.18C546.267 98.18 545.433 97.97 544.701 97.55C543.981 97.13 543.411 96.548 542.991 95.804C542.583 95.06 542.379 94.214 542.379 93.266C542.379 92.33 542.583 91.496 542.991 90.764C543.411 90.032 543.981 89.456 544.701 89.036C545.433 88.616 546.267 88.406 547.203 88.406C548.127 88.406 548.949 88.616 549.669 89.036C550.401 89.456 550.971 90.032 551.379 90.764C551.799 91.496 552.009 92.33 552.009 93.266C552.009 94.214 551.799 95.06 551.379 95.804C550.971 96.548 550.401 97.13 549.669 97.55C548.949 97.97 548.127 98.18 547.203 98.18ZM547.203 96.902C547.863 96.902 548.451 96.746 548.967 96.434C549.483 96.11 549.885 95.678 550.173 95.138C550.461 94.586 550.605 93.962 550.605 93.266C550.605 92.57 550.461 91.952 550.173 91.412C549.885 90.872 549.483 90.452 548.967 90.152C548.451 89.84 547.863 89.684 547.203 89.684C546.543 89.684 545.949 89.84 545.421 90.152C544.905 90.452 544.497 90.878 544.197 91.43C543.909 91.97 543.771 92.582 543.783 93.266C543.771 93.962 543.909 94.586 544.197 95.138C544.497 95.678 544.905 96.11 545.421 96.434C545.949 96.746 546.543 96.902 547.203 96.902ZM562.696 98.18C561.88 98.18 561.142 97.97 560.482 97.55C559.822 97.118 559.3 96.536 558.916 95.804C558.532 95.06 558.34 94.22 558.34 93.284C558.34 92.336 558.538 91.496 558.934 90.764C559.33 90.032 559.858 89.456 560.518 89.036C561.19 88.616 561.94 88.406 562.768 88.406C563.26 88.406 563.716 88.478 564.136 88.622C564.556 88.766 564.928 88.97 565.252 89.234C565.588 89.486 565.864 89.786 566.08 90.134C566.308 90.47 566.464 90.836 566.548 91.232L566.152 91.034L566.206 88.604H567.556V98H566.188V95.696L566.548 95.462C566.464 95.822 566.302 96.17 566.062 96.506C565.822 96.83 565.528 97.118 565.18 97.37C564.844 97.622 564.46 97.82 564.028 97.964C563.608 98.108 563.164 98.18 562.696 98.18ZM563.002 96.884C563.626 96.884 564.184 96.734 564.676 96.434C565.168 96.122 565.552 95.696 565.828 95.156C566.116 94.604 566.26 93.98 566.26 93.284C566.26 92.588 566.116 91.97 565.828 91.43C565.552 90.89 565.168 90.464 564.676 90.152C564.184 89.84 563.626 89.684 563.002 89.684C562.366 89.684 561.802 89.84 561.31 90.152C560.83 90.464 560.446 90.89 560.158 91.43C559.882 91.97 559.744 92.588 559.744 93.284C559.744 93.968 559.882 94.586 560.158 95.138C560.434 95.678 560.818 96.104 561.31 96.416C561.802 96.728 562.366 96.884 563.002 96.884ZM574.146 98.18C573.258 98.18 572.466 97.97 571.77 97.55C571.074 97.118 570.522 96.536 570.114 95.804C569.718 95.06 569.52 94.22 569.52 93.284C569.52 92.348 569.718 91.514 570.114 90.782C570.522 90.038 571.074 89.456 571.77 89.036C572.466 88.616 573.264 88.406 574.164 88.406C574.968 88.406 575.7 88.568 576.36 88.892C577.02 89.204 577.548 89.642 577.944 90.206L577.152 91.178C576.924 90.878 576.648 90.614 576.324 90.386C576.012 90.158 575.67 89.984 575.298 89.864C574.938 89.732 574.578 89.666 574.218 89.666C573.582 89.666 573.012 89.828 572.508 90.152C572.004 90.464 571.602 90.89 571.302 91.43C571.014 91.97 570.87 92.588 570.87 93.284C570.87 93.98 571.014 94.604 571.302 95.156C571.602 95.696 572.004 96.122 572.508 96.434C573.012 96.746 573.576 96.902 574.2 96.902C574.56 96.902 574.914 96.848 575.262 96.74C575.61 96.62 575.94 96.452 576.252 96.236C576.564 96.02 576.852 95.75 577.116 95.426L577.908 96.398C577.5 96.938 576.954 97.37 576.27 97.694C575.586 98.018 574.878 98.18 574.146 98.18ZM583.621 98.18C582.733 98.18 581.941 97.97 581.245 97.55C580.549 97.118 579.997 96.536 579.589 95.804C579.193 95.06 578.995 94.22 578.995 93.284C578.995 92.348 579.193 91.514 579.589 90.782C579.997 90.038 580.549 89.456 581.245 89.036C581.941 88.616 582.739 88.406 583.639 88.406C584.443 88.406 585.175 88.568 585.835 88.892C586.495 89.204 587.023 89.642 587.419 90.206L586.627 91.178C586.399 90.878 586.123 90.614 585.799 90.386C585.487 90.158 585.145 89.984 584.773 89.864C584.413 89.732 584.053 89.666 583.693 89.666C583.057 89.666 582.487 89.828 581.983 90.152C581.479 90.464 581.077 90.89 580.777 91.43C580.489 91.97 580.345 92.588 580.345 93.284C580.345 93.98 580.489 94.604 580.777 95.156C581.077 95.696 581.479 96.122 581.983 96.434C582.487 96.746 583.051 96.902 583.675 96.902C584.035 96.902 584.389 96.848 584.737 96.74C585.085 96.62 585.415 96.452 585.727 96.236C586.039 96.02 586.327 95.75 586.591 95.426L587.383 96.398C586.975 96.938 586.429 97.37 585.745 97.694C585.061 98.018 584.353 98.18 583.621 98.18ZM593.275 98.18C592.339 98.18 591.505 97.976 590.773 97.568C590.053 97.16 589.489 96.59 589.081 95.858C588.673 95.126 588.469 94.286 588.469 93.338C588.469 92.606 588.583 91.946 588.811 91.358C589.039 90.758 589.357 90.236 589.765 89.792C590.185 89.348 590.683 89.006 591.259 88.766C591.835 88.514 592.459 88.388 593.131 88.388C593.767 88.388 594.343 88.502 594.859 88.73C595.387 88.958 595.837 89.276 596.209 89.684C596.593 90.08 596.881 90.554 597.073 91.106C597.265 91.658 597.349 92.264 597.325 92.924L597.307 93.554H589.477L589.279 92.42H596.281L595.957 92.726V92.294C595.933 91.862 595.807 91.448 595.579 91.052C595.351 90.644 595.027 90.314 594.607 90.062C594.199 89.81 593.707 89.684 593.131 89.684C592.459 89.684 591.877 89.822 591.385 90.098C590.893 90.362 590.515 90.758 590.251 91.286C589.987 91.814 589.855 92.468 589.855 93.248C589.855 93.992 589.999 94.64 590.287 95.192C590.575 95.732 590.983 96.152 591.511 96.452C592.051 96.752 592.699 96.902 593.455 96.902C593.899 96.902 594.337 96.83 594.769 96.686C595.213 96.53 595.699 96.23 596.227 95.786L596.929 96.758C596.653 97.034 596.323 97.28 595.939 97.496C595.555 97.7 595.135 97.868 594.679 98C594.223 98.12 593.755 98.18 593.275 98.18ZM602.321 98.18C601.517 98.18 600.797 98.03 600.161 97.73C599.525 97.43 599.021 97.034 598.649 96.542L599.603 95.714C599.951 96.134 600.359 96.452 600.827 96.668C601.307 96.884 601.841 96.992 602.429 96.992C602.729 96.992 602.999 96.962 603.239 96.902C603.479 96.83 603.689 96.728 603.869 96.596C604.049 96.464 604.187 96.308 604.283 96.128C604.379 95.948 604.427 95.75 604.427 95.534C604.427 95.138 604.253 94.808 603.905 94.544C603.749 94.436 603.527 94.328 603.239 94.22C602.951 94.1 602.603 93.986 602.195 93.878C601.523 93.686 600.965 93.494 600.521 93.302C600.077 93.098 599.729 92.864 599.477 92.6C599.297 92.384 599.159 92.15 599.063 91.898C598.979 91.646 598.937 91.37 598.937 91.07C598.937 90.686 599.015 90.332 599.171 90.008C599.339 89.684 599.567 89.402 599.855 89.162C600.155 88.91 600.503 88.724 600.899 88.604C601.307 88.472 601.745 88.406 602.213 88.406C602.657 88.406 603.095 88.466 603.527 88.586C603.959 88.706 604.361 88.88 604.733 89.108C605.105 89.336 605.423 89.606 605.687 89.918L604.859 90.818C604.631 90.578 604.379 90.362 604.103 90.17C603.827 89.978 603.533 89.828 603.221 89.72C602.921 89.612 602.609 89.558 602.285 89.558C601.997 89.558 601.727 89.594 601.475 89.666C601.235 89.738 601.025 89.84 600.845 89.972C600.677 90.092 600.545 90.242 600.449 90.422C600.365 90.602 600.323 90.8 600.323 91.016C600.323 91.196 600.359 91.358 600.431 91.502C600.503 91.646 600.605 91.772 600.737 91.88C600.905 92.012 601.139 92.138 601.439 92.258C601.751 92.366 602.135 92.48 602.591 92.6C603.119 92.744 603.563 92.894 603.923 93.05C604.295 93.194 604.601 93.368 604.841 93.572C605.165 93.812 605.393 94.088 605.525 94.4C605.669 94.712 605.741 95.066 605.741 95.462C605.741 95.99 605.591 96.458 605.291 96.866C605.003 97.274 604.601 97.598 604.085 97.838C603.569 98.066 602.981 98.18 602.321 98.18ZM610.934 98.18C610.13 98.18 609.41 98.03 608.774 97.73C608.138 97.43 607.634 97.034 607.262 96.542L608.216 95.714C608.564 96.134 608.972 96.452 609.44 96.668C609.92 96.884 610.454 96.992 611.042 96.992C611.342 96.992 611.612 96.962 611.852 96.902C612.092 96.83 612.302 96.728 612.482 96.596C612.662 96.464 612.8 96.308 612.896 96.128C612.992 95.948 613.04 95.75 613.04 95.534C613.04 95.138 612.866 94.808 612.518 94.544C612.362 94.436 612.14 94.328 611.852 94.22C611.564 94.1 611.216 93.986 610.808 93.878C610.136 93.686 609.578 93.494 609.134 93.302C608.69 93.098 608.342 92.864 608.09 92.6C607.91 92.384 607.772 92.15 607.676 91.898C607.592 91.646 607.55 91.37 607.55 91.07C607.55 90.686 607.628 90.332 607.784 90.008C607.952 89.684 608.18 89.402 608.468 89.162C608.768 88.91 609.116 88.724 609.512 88.604C609.92 88.472 610.358 88.406 610.826 88.406C611.27 88.406 611.708 88.466 612.14 88.586C612.572 88.706 612.974 88.88 613.346 89.108C613.718 89.336 614.036 89.606 614.3 89.918L613.472 90.818C613.244 90.578 612.992 90.362 612.716 90.17C612.44 89.978 612.146 89.828 611.834 89.72C611.534 89.612 611.222 89.558 610.898 89.558C610.61 89.558 610.34 89.594 610.088 89.666C609.848 89.738 609.638 89.84 609.458 89.972C609.29 90.092 609.158 90.242 609.062 90.422C608.978 90.602 608.936 90.8 608.936 91.016C608.936 91.196 608.972 91.358 609.044 91.502C609.116 91.646 609.218 91.772 609.35 91.88C609.518 92.012 609.752 92.138 610.052 92.258C610.364 92.366 610.748 92.48 611.204 92.6C611.732 92.744 612.176 92.894 612.536 93.05C612.908 93.194 613.214 93.368 613.454 93.572C613.778 93.812 614.006 94.088 614.138 94.4C614.282 94.712 614.354 95.066 614.354 95.462C614.354 95.99 614.204 96.458 613.904 96.866C613.616 97.274 613.214 97.598 612.698 97.838C612.182 98.066 611.594 98.18 610.934 98.18ZM623.098 102.14L624.916 97.712L625.042 98.99L620.326 88.604H621.856L625.078 95.804C625.174 95.996 625.27 96.224 625.366 96.488C625.462 96.74 625.552 96.992 625.636 97.244L625.132 97.19C625.216 96.986 625.294 96.776 625.366 96.56C625.45 96.344 625.528 96.134 625.6 95.93L628.426 88.604H629.974L626.176 98L624.556 102.14H623.098ZM635.375 98.18C634.439 98.18 633.605 97.97 632.873 97.55C632.153 97.13 631.583 96.548 631.163 95.804C630.755 95.06 630.551 94.214 630.551 93.266C630.551 92.33 630.755 91.496 631.163 90.764C631.583 90.032 632.153 89.456 632.873 89.036C633.605 88.616 634.439 88.406 635.375 88.406C636.299 88.406 637.121 88.616 637.841 89.036C638.573 89.456 639.143 90.032 639.551 90.764C639.971 91.496 640.181 92.33 640.181 93.266C640.181 94.214 639.971 95.06 639.551 95.804C639.143 96.548 638.573 97.13 637.841 97.55C637.121 97.97 636.299 98.18 635.375 98.18ZM635.375 96.902C636.035 96.902 636.623 96.746 637.139 96.434C637.655 96.11 638.057 95.678 638.345 95.138C638.633 94.586 638.777 93.962 638.777 93.266C638.777 92.57 638.633 91.952 638.345 91.412C638.057 90.872 637.655 90.452 637.139 90.152C636.623 89.84 636.035 89.684 635.375 89.684C634.715 89.684 634.121 89.84 633.593 90.152C633.077 90.452 632.669 90.878 632.369 91.43C632.081 91.97 631.943 92.582 631.955 93.266C631.943 93.962 632.081 94.586 632.369 95.138C632.669 95.678 633.077 96.11 633.593 96.434C634.121 96.746 634.715 96.902 635.375 96.902ZM645.481 98.18C644.761 98.18 644.149 98.036 643.645 97.748C643.153 97.448 642.775 97.016 642.511 96.452C642.259 95.888 642.133 95.186 642.133 94.346V88.604H643.501V94.076C643.501 94.712 643.585 95.246 643.753 95.678C643.933 96.098 644.197 96.416 644.545 96.632C644.905 96.848 645.343 96.956 645.859 96.956C646.255 96.956 646.621 96.89 646.957 96.758C647.293 96.614 647.587 96.422 647.839 96.182C648.091 95.942 648.289 95.66 648.433 95.336C648.577 95.012 648.649 94.67 648.649 94.31V88.604H649.999V98H648.667L648.613 96.02L648.829 95.912C648.685 96.332 648.445 96.716 648.109 97.064C647.773 97.4 647.371 97.67 646.903 97.874C646.447 98.078 645.973 98.18 645.481 98.18ZM652.627 98V88.604H653.977L654.013 91.106L653.869 90.764C654.001 90.344 654.211 89.954 654.499 89.594C654.799 89.234 655.153 88.946 655.561 88.73C655.969 88.514 656.419 88.406 656.911 88.406C657.115 88.406 657.307 88.424 657.487 88.46C657.667 88.484 657.817 88.52 657.937 88.568L657.559 90.08C657.403 90.008 657.241 89.96 657.073 89.936C656.917 89.9 656.767 89.882 656.623 89.882C656.215 89.882 655.849 89.954 655.525 90.098C655.201 90.242 654.925 90.446 654.697 90.71C654.469 90.962 654.295 91.256 654.175 91.592C654.055 91.928 653.995 92.288 653.995 92.672V98H652.627ZM668.059 98.18C667.243 98.18 666.505 97.97 665.845 97.55C665.185 97.118 664.663 96.536 664.279 95.804C663.895 95.06 663.703 94.22 663.703 93.284C663.703 92.336 663.901 91.496 664.297 90.764C664.693 90.032 665.221 89.456 665.881 89.036C666.553 88.616 667.303 88.406 668.131 88.406C668.623 88.406 669.079 88.478 669.499 88.622C669.919 88.766 670.291 88.97 670.615 89.234C670.951 89.486 671.227 89.786 671.443 90.134C671.671 90.47 671.827 90.836 671.911 91.232L671.515 91.034L671.569 88.604H672.919V98H671.551V95.696L671.911 95.462C671.827 95.822 671.665 96.17 671.425 96.506C671.185 96.83 670.891 97.118 670.543 97.37C670.207 97.622 669.823 97.82 669.391 97.964C668.971 98.108 668.527 98.18 668.059 98.18ZM668.365 96.884C668.989 96.884 669.547 96.734 670.039 96.434C670.531 96.122 670.915 95.696 671.191 95.156C671.479 94.604 671.623 93.98 671.623 93.284C671.623 92.588 671.479 91.97 671.191 91.43C670.915 90.89 670.531 90.464 670.039 90.152C669.547 89.84 668.989 89.684 668.365 89.684C667.729 89.684 667.165 89.84 666.673 90.152C666.193 90.464 665.809 90.89 665.521 91.43C665.245 91.97 665.107 92.588 665.107 93.284C665.107 93.968 665.245 94.586 665.521 95.138C665.797 95.678 666.181 96.104 666.673 96.416C667.165 96.728 667.729 96.884 668.365 96.884ZM679.509 98.18C678.621 98.18 677.829 97.97 677.133 97.55C676.437 97.118 675.885 96.536 675.477 95.804C675.081 95.06 674.883 94.22 674.883 93.284C674.883 92.348 675.081 91.514 675.477 90.782C675.885 90.038 676.437 89.456 677.133 89.036C677.829 88.616 678.627 88.406 679.527 88.406C680.331 88.406 681.063 88.568 681.723 88.892C682.383 89.204 682.911 89.642 683.307 90.206L682.515 91.178C682.287 90.878 682.011 90.614 681.687 90.386C681.375 90.158 681.033 89.984 680.661 89.864C680.301 89.732 679.941 89.666 679.581 89.666C678.945 89.666 678.375 89.828 677.871 90.152C677.367 90.464 676.965 90.89 676.665 91.43C676.377 91.97 676.233 92.588 676.233 93.284C676.233 93.98 676.377 94.604 676.665 95.156C676.965 95.696 677.367 96.122 677.871 96.434C678.375 96.746 678.939 96.902 679.563 96.902C679.923 96.902 680.277 96.848 680.625 96.74C680.973 96.62 681.303 96.452 681.615 96.236C681.927 96.02 682.215 95.75 682.479 95.426L683.271 96.398C682.863 96.938 682.317 97.37 681.633 97.694C680.949 98.018 680.241 98.18 679.509 98.18ZM688.984 98.18C688.096 98.18 687.304 97.97 686.608 97.55C685.912 97.118 685.36 96.536 684.952 95.804C684.556 95.06 684.358 94.22 684.358 93.284C684.358 92.348 684.556 91.514 684.952 90.782C685.36 90.038 685.912 89.456 686.608 89.036C687.304 88.616 688.102 88.406 689.002 88.406C689.806 88.406 690.538 88.568 691.198 88.892C691.858 89.204 692.386 89.642 692.782 90.206L691.99 91.178C691.762 90.878 691.486 90.614 691.162 90.386C690.85 90.158 690.508 89.984 690.136 89.864C689.776 89.732 689.416 89.666 689.056 89.666C688.42 89.666 687.85 89.828 687.346 90.152C686.842 90.464 686.44 90.89 686.14 91.43C685.852 91.97 685.708 92.588 685.708 93.284C685.708 93.98 685.852 94.604 686.14 95.156C686.44 95.696 686.842 96.122 687.346 96.434C687.85 96.746 688.414 96.902 689.038 96.902C689.398 96.902 689.752 96.848 690.1 96.74C690.448 96.62 690.778 96.452 691.09 96.236C691.402 96.02 691.69 95.75 691.954 95.426L692.746 96.398C692.338 96.938 691.792 97.37 691.108 97.694C690.424 98.018 689.716 98.18 688.984 98.18ZM698.657 98.18C697.721 98.18 696.887 97.97 696.155 97.55C695.435 97.13 694.865 96.548 694.445 95.804C694.037 95.06 693.833 94.214 693.833 93.266C693.833 92.33 694.037 91.496 694.445 90.764C694.865 90.032 695.435 89.456 696.155 89.036C696.887 88.616 697.721 88.406 698.657 88.406C699.581 88.406 700.403 88.616 701.123 89.036C701.855 89.456 702.425 90.032 702.833 90.764C703.253 91.496 703.463 92.33 703.463 93.266C703.463 94.214 703.253 95.06 702.833 95.804C702.425 96.548 701.855 97.13 701.123 97.55C700.403 97.97 699.581 98.18 698.657 98.18ZM698.657 96.902C699.317 96.902 699.905 96.746 700.421 96.434C700.937 96.11 701.339 95.678 701.627 95.138C701.915 94.586 702.059 93.962 702.059 93.266C702.059 92.57 701.915 91.952 701.627 91.412C701.339 90.872 700.937 90.452 700.421 90.152C699.905 89.84 699.317 89.684 698.657 89.684C697.997 89.684 697.403 89.84 696.875 90.152C696.359 90.452 695.951 90.878 695.651 91.43C695.363 91.97 695.225 92.582 695.237 93.266C695.225 93.962 695.363 94.586 695.651 95.138C695.951 95.678 696.359 96.11 696.875 96.434C697.403 96.746 697.997 96.902 698.657 96.902ZM708.762 98.18C708.042 98.18 707.43 98.036 706.926 97.748C706.434 97.448 706.056 97.016 705.792 96.452C705.54 95.888 705.414 95.186 705.414 94.346V88.604H706.782V94.076C706.782 94.712 706.866 95.246 707.034 95.678C707.214 96.098 707.478 96.416 707.826 96.632C708.186 96.848 708.624 96.956 709.14 96.956C709.536 96.956 709.902 96.89 710.238 96.758C710.574 96.614 710.868 96.422 711.12 96.182C711.372 95.942 711.57 95.66 711.714 95.336C711.858 95.012 711.93 94.67 711.93 94.31V88.604H713.28V98H711.948L711.894 96.02L712.11 95.912C711.966 96.332 711.726 96.716 711.39 97.064C711.054 97.4 710.652 97.67 710.184 97.874C709.728 98.078 709.254 98.18 708.762 98.18ZM715.909 98V88.604H717.241L717.295 90.566L717.079 90.656C717.199 90.248 717.433 89.876 717.781 89.54C718.129 89.204 718.543 88.934 719.023 88.73C719.515 88.514 720.019 88.406 720.535 88.406C721.231 88.406 721.813 88.544 722.281 88.82C722.749 89.096 723.103 89.522 723.343 90.098C723.583 90.674 723.703 91.406 723.703 92.294V98H722.335V92.366C722.335 91.742 722.251 91.232 722.083 90.836C721.927 90.428 721.681 90.128 721.345 89.936C721.009 89.744 720.595 89.654 720.103 89.666C719.695 89.666 719.317 89.738 718.969 89.882C718.621 90.014 718.321 90.2 718.069 90.44C717.817 90.68 717.619 90.956 717.475 91.268C717.331 91.58 717.259 91.916 717.259 92.276V98H716.593C716.509 98 716.413 98 716.305 98C716.197 98 716.065 98 715.909 98ZM727.576 98V86.138H728.926V98H727.576ZM725.452 89.9V88.604H731.302V89.9H725.452ZM733.698 98.18C733.374 98.18 733.122 98.084 732.942 97.892C732.774 97.7 732.69 97.424 732.69 97.064C732.69 96.74 732.78 96.476 732.96 96.272C733.152 96.056 733.398 95.948 733.698 95.948C734.022 95.948 734.268 96.05 734.436 96.254C734.616 96.446 734.706 96.716 734.706 97.064C734.706 97.4 734.61 97.67 734.418 97.874C734.238 98.078 733.998 98.18 733.698 98.18Z" fill="#BFBFBF"/>
</svg>
