<svg width="1026" height="103" viewBox="0 0 1026 103" fill="none" xmlns="http://www.w3.org/2000/svg">
<path d="M435.309 48.48C433.357 48.48 431.565 48.24 429.933 47.76C428.301 47.248 426.829 46.496 425.517 45.504C424.205 44.512 423.037 43.312 422.013 41.904L426.093 37.296C427.661 39.472 429.197 40.976 430.701 41.808C432.205 42.64 433.901 43.056 435.789 43.056C436.877 43.056 437.869 42.896 438.765 42.576C439.661 42.224 440.365 41.76 440.877 41.184C441.389 40.576 441.645 39.888 441.645 39.12C441.645 38.576 441.533 38.08 441.309 37.632C441.117 37.152 440.813 36.736 440.397 36.384C439.981 36 439.469 35.648 438.861 35.328C438.253 35.008 437.565 34.736 436.797 34.512C436.029 34.288 435.181 34.08 434.253 33.888C432.493 33.536 430.957 33.072 429.645 32.496C428.333 31.888 427.229 31.152 426.333 30.288C425.437 29.392 424.781 28.4 424.365 27.312C423.949 26.192 423.741 24.928 423.741 23.52C423.741 22.112 424.045 20.816 424.653 19.632C425.293 18.448 426.157 17.424 427.245 16.56C428.333 15.696 429.597 15.024 431.037 14.544C432.477 14.064 434.029 13.824 435.693 13.824C437.581 13.824 439.261 14.048 440.733 14.496C442.237 14.944 443.549 15.616 444.669 16.512C445.821 17.376 446.765 18.432 447.501 19.68L443.373 23.76C442.733 22.768 442.013 21.952 441.213 21.312C440.413 20.64 439.549 20.144 438.621 19.824C437.693 19.472 436.717 19.296 435.693 19.296C434.541 19.296 433.533 19.456 432.669 19.776C431.837 20.096 431.181 20.56 430.701 21.168C430.221 21.744 429.981 22.448 429.981 23.28C429.981 23.92 430.125 24.496 430.413 25.008C430.701 25.488 431.101 25.92 431.613 26.304C432.157 26.688 432.845 27.024 433.677 27.312C434.509 27.6 435.453 27.856 436.509 28.08C438.269 28.432 439.853 28.912 441.261 29.52C442.669 30.096 443.869 30.8 444.861 31.632C445.853 32.432 446.605 33.36 447.117 34.416C447.629 35.44 447.885 36.592 447.885 37.872C447.885 40.08 447.357 41.984 446.301 43.584C445.277 45.152 443.821 46.368 441.933 47.232C440.045 48.064 437.837 48.48 435.309 48.48ZM454.362 48V22.704H460.266V48H454.362ZM457.242 17.328C456.058 17.328 455.13 17.04 454.458 16.464C453.818 15.856 453.498 15.008 453.498 13.92C453.498 12.896 453.834 12.064 454.506 11.424C455.178 10.784 456.09 10.464 457.242 10.464C458.458 10.464 459.386 10.768 460.026 11.376C460.698 11.952 461.034 12.8 461.034 13.92C461.034 14.912 460.698 15.728 460.026 16.368C459.354 17.008 458.426 17.328 457.242 17.328ZM479.129 59.04C477.241 59.04 475.353 58.752 473.465 58.176C471.609 57.6 470.105 56.848 468.953 55.92L471.065 51.552C471.737 52.032 472.489 52.448 473.321 52.8C474.153 53.152 475.033 53.424 475.961 53.616C476.921 53.808 477.865 53.904 478.793 53.904C480.489 53.904 481.897 53.632 483.017 53.088C484.169 52.576 485.033 51.776 485.609 50.688C486.185 49.632 486.473 48.304 486.473 46.704V42.048L487.337 42.384C487.145 43.376 486.617 44.32 485.753 45.216C484.889 46.112 483.801 46.848 482.489 47.424C481.177 47.968 479.833 48.24 478.457 48.24C476.057 48.24 473.929 47.68 472.073 46.56C470.249 45.44 468.793 43.92 467.705 42C466.649 40.048 466.121 37.808 466.121 35.28C466.121 32.752 466.649 30.512 467.705 28.56C468.761 26.576 470.201 25.024 472.025 23.904C473.881 22.752 475.961 22.176 478.265 22.176C479.225 22.176 480.153 22.288 481.049 22.512C481.945 22.736 482.761 23.056 483.497 23.472C484.265 23.888 484.953 24.352 485.561 24.864C486.169 25.376 486.665 25.92 487.049 26.496C487.433 27.072 487.673 27.632 487.769 28.176L486.521 28.56L486.617 22.704H492.425V46.272C492.425 48.32 492.121 50.128 491.513 51.696C490.905 53.264 490.025 54.592 488.873 55.68C487.721 56.8 486.329 57.632 484.697 58.176C483.065 58.752 481.209 59.04 479.129 59.04ZM479.369 43.2C480.809 43.2 482.073 42.864 483.161 42.192C484.281 41.52 485.145 40.592 485.753 39.408C486.361 38.224 486.665 36.864 486.665 35.328C486.665 33.76 486.345 32.384 485.705 31.2C485.097 29.984 484.249 29.04 483.161 28.368C482.073 27.696 480.809 27.36 479.369 27.36C477.929 27.36 476.665 27.712 475.577 28.416C474.489 29.088 473.625 30.032 472.985 31.248C472.377 32.432 472.073 33.792 472.073 35.328C472.073 36.832 472.377 38.192 472.985 39.408C473.625 40.592 474.489 41.52 475.577 42.192C476.665 42.864 477.929 43.2 479.369 43.2ZM499.253 48V22.704H505.013L505.109 27.888L504.005 28.464C504.325 27.312 504.949 26.272 505.877 25.344C506.805 24.384 507.909 23.616 509.189 23.04C510.469 22.464 511.781 22.176 513.125 22.176C515.045 22.176 516.645 22.56 517.925 23.328C519.237 24.096 520.213 25.248 520.853 26.784C521.525 28.32 521.861 30.24 521.861 32.544V48H515.957V32.976C515.957 31.696 515.781 30.64 515.429 29.808C515.077 28.944 514.533 28.32 513.797 27.936C513.061 27.52 512.165 27.328 511.109 27.36C510.245 27.36 509.445 27.504 508.709 27.792C508.005 28.048 507.381 28.432 506.837 28.944C506.325 29.424 505.909 29.984 505.589 30.624C505.301 31.264 505.157 31.968 505.157 32.736V48H502.229C501.653 48 501.109 48 500.597 48C500.117 48 499.669 48 499.253 48ZM557.108 48.288C554.452 48.288 552.084 47.728 550.004 46.608C547.924 45.456 546.276 43.888 545.06 41.904C543.876 39.888 543.284 37.616 543.284 35.088V14.352H549.572V34.656C549.572 36.16 549.908 37.504 550.58 38.688C551.284 39.84 552.212 40.768 553.364 41.472C554.516 42.176 555.764 42.528 557.108 42.528C558.58 42.528 559.908 42.176 561.092 41.472C562.276 40.768 563.204 39.84 563.876 38.688C564.58 37.504 564.932 36.16 564.932 34.656V14.352H570.98V35.088C570.98 37.616 570.372 39.888 569.156 41.904C567.972 43.888 566.34 45.456 564.26 46.608C562.18 47.728 559.796 48.288 557.108 48.288ZM578.565 58.56V22.704H584.373L584.469 28.464L583.461 28.032C583.653 27.04 584.197 26.112 585.093 25.248C585.989 24.352 587.077 23.632 588.357 23.088C589.669 22.544 591.029 22.272 592.437 22.272C594.677 22.272 596.661 22.832 598.389 23.952C600.149 25.072 601.525 26.608 602.517 28.56C603.541 30.512 604.053 32.768 604.053 35.328C604.053 37.856 603.541 40.112 602.517 42.096C601.525 44.048 600.149 45.6 598.389 46.752C596.661 47.872 594.709 48.432 592.533 48.432C591.061 48.432 589.637 48.144 588.261 47.568C586.917 46.992 585.765 46.24 584.805 45.312C583.877 44.384 583.301 43.408 583.077 42.384L584.517 41.712V58.56H578.565ZM591.333 43.2C592.677 43.2 593.877 42.864 594.933 42.192C595.989 41.52 596.805 40.592 597.381 39.408C597.989 38.224 598.293 36.864 598.293 35.328C598.293 33.792 598.005 32.448 597.429 31.296C596.853 30.112 596.037 29.184 594.981 28.512C593.925 27.84 592.709 27.504 591.333 27.504C589.925 27.504 588.693 27.84 587.637 28.512C586.613 29.152 585.797 30.064 585.189 31.248C584.581 32.432 584.277 33.792 584.277 35.328C584.277 36.864 584.581 38.224 585.189 39.408C585.797 40.592 586.613 41.52 587.637 42.192C588.693 42.864 589.925 43.2 591.333 43.2Z" fill="#CAFF33"/>
<path d="M73.1481 98.18C72.7401 98.18 72.3561 98.126 71.9961 98.018C71.6361 97.922 71.3001 97.778 70.9881 97.586C70.6761 97.382 70.3941 97.136 70.1421 96.848C69.8901 96.56 69.6681 96.242 69.4761 95.894L70.4121 94.922C70.6281 95.282 70.8441 95.582 71.0601 95.822C71.2881 96.062 71.5101 96.254 71.7261 96.398C71.9541 96.542 72.1821 96.644 72.4101 96.704C72.6501 96.764 72.8961 96.794 73.1481 96.794C73.6401 96.794 74.0721 96.68 74.4441 96.452C74.8281 96.212 75.1221 95.888 75.3261 95.48C75.5421 95.06 75.6501 94.586 75.6501 94.058V86.732H73.3641V85.4H78.9441V86.732H77.0901V94.166C77.0901 94.742 76.9941 95.276 76.8021 95.768C76.6101 96.26 76.3401 96.686 75.9921 97.046C75.6441 97.406 75.2301 97.688 74.7501 97.892C74.2701 98.084 73.7361 98.18 73.1481 98.18ZM84.3626 98.18C83.4266 98.18 82.5926 97.97 81.8606 97.55C81.1406 97.13 80.5706 96.548 80.1506 95.804C79.7426 95.06 79.5386 94.214 79.5386 93.266C79.5386 92.33 79.7426 91.496 80.1506 90.764C80.5706 90.032 81.1406 89.456 81.8606 89.036C82.5926 88.616 83.4266 88.406 84.3626 88.406C85.2866 88.406 86.1086 88.616 86.8286 89.036C87.5606 89.456 88.1306 90.032 88.5386 90.764C88.9586 91.496 89.1686 92.33 89.1686 93.266C89.1686 94.214 88.9586 95.06 88.5386 95.804C88.1306 96.548 87.5606 97.13 86.8286 97.55C86.1086 97.97 85.2866 98.18 84.3626 98.18ZM84.3626 96.902C85.0226 96.902 85.6106 96.746 86.1266 96.434C86.6426 96.11 87.0446 95.678 87.3326 95.138C87.6206 94.586 87.7646 93.962 87.7646 93.266C87.7646 92.57 87.6206 91.952 87.3326 91.412C87.0446 90.872 86.6426 90.452 86.1266 90.152C85.6106 89.84 85.0226 89.684 84.3626 89.684C83.7026 89.684 83.1086 89.84 82.5806 90.152C82.0646 90.452 81.6566 90.878 81.3566 91.43C81.0686 91.97 80.9306 92.582 80.9426 93.266C80.9306 93.962 81.0686 94.586 81.3566 95.138C81.6566 95.678 82.0646 96.11 82.5806 96.434C83.1086 96.746 83.7026 96.902 84.3626 96.902ZM91.4982 98V88.604H92.8482V98H91.4982ZM92.1642 86.57C91.8282 86.57 91.5702 86.486 91.3902 86.318C91.2222 86.138 91.1382 85.898 91.1382 85.598C91.1382 85.298 91.2282 85.058 91.4082 84.878C91.5882 84.698 91.8402 84.608 92.1642 84.608C92.4882 84.608 92.7402 84.698 92.9202 84.878C93.1002 85.046 93.1902 85.286 93.1902 85.598C93.1902 85.886 93.1002 86.12 92.9202 86.3C92.7402 86.48 92.4882 86.57 92.1642 86.57ZM95.7964 98V88.604H97.1284L97.1824 90.566L96.9664 90.656C97.0864 90.248 97.3204 89.876 97.6684 89.54C98.0164 89.204 98.4304 88.934 98.9104 88.73C99.4024 88.514 99.9064 88.406 100.422 88.406C101.118 88.406 101.7 88.544 102.168 88.82C102.636 89.096 102.99 89.522 103.23 90.098C103.47 90.674 103.59 91.406 103.59 92.294V98H102.222V92.366C102.222 91.742 102.138 91.232 101.97 90.836C101.814 90.428 101.568 90.128 101.232 89.936C100.896 89.744 100.482 89.654 99.9904 89.666C99.5824 89.666 99.2044 89.738 98.8564 89.882C98.5084 90.014 98.2084 90.2 97.9564 90.44C97.7044 90.68 97.5064 90.956 97.3624 91.268C97.2184 91.58 97.1464 91.916 97.1464 92.276V98H96.4804C96.3964 98 96.3004 98 96.1924 98C96.0844 98 95.9524 98 95.7964 98ZM115.37 98.18C114.434 98.18 113.6 97.97 112.868 97.55C112.148 97.13 111.578 96.548 111.158 95.804C110.75 95.06 110.546 94.214 110.546 93.266C110.546 92.33 110.75 91.496 111.158 90.764C111.578 90.032 112.148 89.456 112.868 89.036C113.6 88.616 114.434 88.406 115.37 88.406C116.294 88.406 117.116 88.616 117.836 89.036C118.568 89.456 119.138 90.032 119.546 90.764C119.966 91.496 120.176 92.33 120.176 93.266C120.176 94.214 119.966 95.06 119.546 95.804C119.138 96.548 118.568 97.13 117.836 97.55C117.116 97.97 116.294 98.18 115.37 98.18ZM115.37 96.902C116.03 96.902 116.618 96.746 117.134 96.434C117.65 96.11 118.052 95.678 118.34 95.138C118.628 94.586 118.772 93.962 118.772 93.266C118.772 92.57 118.628 91.952 118.34 91.412C118.052 90.872 117.65 90.452 117.134 90.152C116.618 89.84 116.03 89.684 115.37 89.684C114.71 89.684 114.116 89.84 113.588 90.152C113.072 90.452 112.664 90.878 112.364 91.43C112.076 91.97 111.938 92.582 111.95 93.266C111.938 93.962 112.076 94.586 112.364 95.138C112.664 95.678 113.072 96.11 113.588 96.434C114.116 96.746 114.71 96.902 115.37 96.902ZM125.476 98.18C124.756 98.18 124.144 98.036 123.64 97.748C123.148 97.448 122.77 97.016 122.506 96.452C122.254 95.888 122.128 95.186 122.128 94.346V88.604H123.496V94.076C123.496 94.712 123.58 95.246 123.748 95.678C123.928 96.098 124.192 96.416 124.54 96.632C124.9 96.848 125.338 96.956 125.854 96.956C126.25 96.956 126.616 96.89 126.952 96.758C127.288 96.614 127.582 96.422 127.834 96.182C128.086 95.942 128.284 95.66 128.428 95.336C128.572 95.012 128.644 94.67 128.644 94.31V88.604H129.994V98H128.662L128.608 96.02L128.824 95.912C128.68 96.332 128.44 96.716 128.104 97.064C127.768 97.4 127.366 97.67 126.898 97.874C126.442 98.078 125.968 98.18 125.476 98.18ZM132.623 98V88.604H133.973L134.009 91.106L133.865 90.764C133.997 90.344 134.207 89.954 134.495 89.594C134.795 89.234 135.149 88.946 135.557 88.73C135.965 88.514 136.415 88.406 136.907 88.406C137.111 88.406 137.303 88.424 137.483 88.46C137.663 88.484 137.813 88.52 137.933 88.568L137.555 90.08C137.399 90.008 137.237 89.96 137.069 89.936C136.913 89.9 136.763 89.882 136.619 89.882C136.211 89.882 135.845 89.954 135.521 90.098C135.197 90.242 134.921 90.446 134.693 90.71C134.465 90.962 134.291 91.256 134.171 91.592C134.051 91.928 133.991 92.288 133.991 92.672V98H132.623ZM148.342 98.18C147.454 98.18 146.662 97.97 145.966 97.55C145.27 97.118 144.718 96.536 144.31 95.804C143.914 95.06 143.716 94.22 143.716 93.284C143.716 92.348 143.914 91.514 144.31 90.782C144.718 90.038 145.27 89.456 145.966 89.036C146.662 88.616 147.46 88.406 148.36 88.406C149.164 88.406 149.896 88.568 150.556 88.892C151.216 89.204 151.744 89.642 152.14 90.206L151.348 91.178C151.12 90.878 150.844 90.614 150.52 90.386C150.208 90.158 149.866 89.984 149.494 89.864C149.134 89.732 148.774 89.666 148.414 89.666C147.778 89.666 147.208 89.828 146.704 90.152C146.2 90.464 145.798 90.89 145.498 91.43C145.21 91.97 145.066 92.588 145.066 93.284C145.066 93.98 145.21 94.604 145.498 95.156C145.798 95.696 146.2 96.122 146.704 96.434C147.208 96.746 147.772 96.902 148.396 96.902C148.756 96.902 149.11 96.848 149.458 96.74C149.806 96.62 150.136 96.452 150.448 96.236C150.76 96.02 151.048 95.75 151.312 95.426L152.104 96.398C151.696 96.938 151.15 97.37 150.466 97.694C149.782 98.018 149.074 98.18 148.342 98.18ZM158.015 98.18C157.079 98.18 156.245 97.97 155.513 97.55C154.793 97.13 154.223 96.548 153.803 95.804C153.395 95.06 153.191 94.214 153.191 93.266C153.191 92.33 153.395 91.496 153.803 90.764C154.223 90.032 154.793 89.456 155.513 89.036C156.245 88.616 157.079 88.406 158.015 88.406C158.939 88.406 159.761 88.616 160.481 89.036C161.213 89.456 161.783 90.032 162.191 90.764C162.611 91.496 162.821 92.33 162.821 93.266C162.821 94.214 162.611 95.06 162.191 95.804C161.783 96.548 161.213 97.13 160.481 97.55C159.761 97.97 158.939 98.18 158.015 98.18ZM158.015 96.902C158.675 96.902 159.263 96.746 159.779 96.434C160.295 96.11 160.697 95.678 160.985 95.138C161.273 94.586 161.417 93.962 161.417 93.266C161.417 92.57 161.273 91.952 160.985 91.412C160.697 90.872 160.295 90.452 159.779 90.152C159.263 89.84 158.675 89.684 158.015 89.684C157.355 89.684 156.761 89.84 156.233 90.152C155.717 90.452 155.309 90.878 155.009 91.43C154.721 91.97 154.583 92.582 154.595 93.266C154.583 93.962 154.721 94.586 155.009 95.138C155.309 95.678 155.717 96.11 156.233 96.434C156.761 96.746 157.355 96.902 158.015 96.902ZM164.773 98V88.604H166.123L166.159 90.746L165.889 90.836C165.985 90.476 166.141 90.152 166.357 89.864C166.585 89.564 166.855 89.306 167.167 89.09C167.479 88.874 167.821 88.712 168.193 88.604C168.565 88.484 168.955 88.424 169.363 88.424C169.855 88.424 170.293 88.508 170.677 88.676C171.073 88.832 171.403 89.108 171.667 89.504C171.943 89.888 172.153 90.398 172.297 91.034L171.973 90.872L172.099 90.566C172.219 90.29 172.393 90.026 172.621 89.774C172.861 89.51 173.131 89.276 173.431 89.072C173.743 88.868 174.079 88.712 174.439 88.604C174.811 88.484 175.189 88.424 175.573 88.424C176.233 88.424 176.791 88.568 177.247 88.856C177.703 89.132 178.045 89.558 178.273 90.134C178.513 90.71 178.633 91.442 178.633 92.33V98H177.247V92.402C177.247 91.778 177.169 91.268 177.013 90.872C176.857 90.476 176.623 90.182 176.311 89.99C176.011 89.786 175.627 89.684 175.159 89.684C174.751 89.684 174.373 89.756 174.025 89.9C173.689 90.032 173.395 90.224 173.143 90.476C172.903 90.716 172.711 90.992 172.567 91.304C172.435 91.616 172.369 91.952 172.369 92.312V98H171.001V92.384C171.001 91.784 170.917 91.286 170.749 90.89C170.593 90.494 170.359 90.194 170.047 89.99C169.735 89.786 169.351 89.684 168.895 89.684C168.499 89.684 168.133 89.756 167.797 89.9C167.461 90.032 167.167 90.218 166.915 90.458C166.675 90.698 166.483 90.974 166.339 91.286C166.207 91.598 166.141 91.934 166.141 92.294V98H164.773ZM181.173 98V88.604H182.523L182.559 90.746L182.289 90.836C182.385 90.476 182.541 90.152 182.757 89.864C182.985 89.564 183.255 89.306 183.567 89.09C183.879 88.874 184.221 88.712 184.593 88.604C184.965 88.484 185.355 88.424 185.763 88.424C186.255 88.424 186.693 88.508 187.077 88.676C187.473 88.832 187.803 89.108 188.067 89.504C188.343 89.888 188.553 90.398 188.697 91.034L188.373 90.872L188.499 90.566C188.619 90.29 188.793 90.026 189.021 89.774C189.261 89.51 189.531 89.276 189.831 89.072C190.143 88.868 190.479 88.712 190.839 88.604C191.211 88.484 191.589 88.424 191.973 88.424C192.633 88.424 193.191 88.568 193.647 88.856C194.103 89.132 194.445 89.558 194.673 90.134C194.913 90.71 195.033 91.442 195.033 92.33V98H193.647V92.402C193.647 91.778 193.569 91.268 193.413 90.872C193.257 90.476 193.023 90.182 192.711 89.99C192.411 89.786 192.027 89.684 191.559 89.684C191.151 89.684 190.773 89.756 190.425 89.9C190.089 90.032 189.795 90.224 189.543 90.476C189.303 90.716 189.111 90.992 188.967 91.304C188.835 91.616 188.769 91.952 188.769 92.312V98H187.401V92.384C187.401 91.784 187.317 91.286 187.149 90.89C186.993 90.494 186.759 90.194 186.447 89.99C186.135 89.786 185.751 89.684 185.295 89.684C184.899 89.684 184.533 89.756 184.197 89.9C183.861 90.032 183.567 90.218 183.315 90.458C183.075 90.698 182.883 90.974 182.739 91.286C182.607 91.598 182.541 91.934 182.541 92.294V98H181.173ZM200.921 98.18C200.201 98.18 199.589 98.036 199.085 97.748C198.593 97.448 198.215 97.016 197.951 96.452C197.699 95.888 197.573 95.186 197.573 94.346V88.604H198.941V94.076C198.941 94.712 199.025 95.246 199.193 95.678C199.373 96.098 199.637 96.416 199.985 96.632C200.345 96.848 200.783 96.956 201.299 96.956C201.695 96.956 202.061 96.89 202.397 96.758C202.733 96.614 203.027 96.422 203.279 96.182C203.531 95.942 203.729 95.66 203.873 95.336C204.017 95.012 204.089 94.67 204.089 94.31V88.604H205.439V98H204.107L204.053 96.02L204.269 95.912C204.125 96.332 203.885 96.716 203.549 97.064C203.213 97.4 202.811 97.67 202.343 97.874C201.887 98.078 201.413 98.18 200.921 98.18ZM208.068 98V88.604H209.4L209.454 90.566L209.238 90.656C209.358 90.248 209.592 89.876 209.94 89.54C210.288 89.204 210.702 88.934 211.182 88.73C211.674 88.514 212.178 88.406 212.694 88.406C213.39 88.406 213.972 88.544 214.44 88.82C214.908 89.096 215.262 89.522 215.502 90.098C215.742 90.674 215.862 91.406 215.862 92.294V98H214.494V92.366C214.494 91.742 214.41 91.232 214.242 90.836C214.086 90.428 213.84 90.128 213.504 89.936C213.168 89.744 212.754 89.654 212.262 89.666C211.854 89.666 211.476 89.738 211.128 89.882C210.78 90.014 210.48 90.2 210.228 90.44C209.976 90.68 209.778 90.956 209.634 91.268C209.49 91.58 209.418 91.916 209.418 92.276V98H208.752C208.668 98 208.572 98 208.464 98C208.356 98 208.224 98 208.068 98ZM218.799 98V88.604H220.149V98H218.799ZM219.465 86.57C219.129 86.57 218.871 86.486 218.691 86.318C218.523 86.138 218.439 85.898 218.439 85.598C218.439 85.298 218.529 85.058 218.709 84.878C218.889 84.698 219.141 84.608 219.465 84.608C219.789 84.608 220.041 84.698 220.221 84.878C220.401 85.046 220.491 85.286 220.491 85.598C220.491 85.886 220.401 86.12 220.221 86.3C220.041 86.48 219.789 86.57 219.465 86.57ZM224.393 98V86.138H225.743V98H224.393ZM222.269 89.9V88.604H228.119V89.9H222.269ZM231.361 102.14L233.179 97.712L233.305 98.99L228.589 88.604H230.119L233.341 95.804C233.437 95.996 233.533 96.224 233.629 96.488C233.725 96.74 233.815 96.992 233.899 97.244L233.395 97.19C233.479 96.986 233.557 96.776 233.629 96.56C233.713 96.344 233.791 96.134 233.863 95.93L236.689 88.604H238.237L234.439 98L232.819 102.14H231.361ZM245.997 98V86.138H247.347V98H245.997ZM243.873 89.9V88.604H249.723V89.9H243.873ZM255.451 98.18C254.515 98.18 253.681 97.97 252.949 97.55C252.229 97.13 251.659 96.548 251.239 95.804C250.831 95.06 250.627 94.214 250.627 93.266C250.627 92.33 250.831 91.496 251.239 90.764C251.659 90.032 252.229 89.456 252.949 89.036C253.681 88.616 254.515 88.406 255.451 88.406C256.375 88.406 257.197 88.616 257.917 89.036C258.649 89.456 259.219 90.032 259.627 90.764C260.047 91.496 260.257 92.33 260.257 93.266C260.257 94.214 260.047 95.06 259.627 95.804C259.219 96.548 258.649 97.13 257.917 97.55C257.197 97.97 256.375 98.18 255.451 98.18ZM255.451 96.902C256.111 96.902 256.699 96.746 257.215 96.434C257.731 96.11 258.133 95.678 258.421 95.138C258.709 94.586 258.853 93.962 258.853 93.266C258.853 92.57 258.709 91.952 258.421 91.412C258.133 90.872 257.731 90.452 257.215 90.152C256.699 89.84 256.111 89.684 255.451 89.684C254.791 89.684 254.197 89.84 253.669 90.152C253.153 90.452 252.745 90.878 252.445 91.43C252.157 91.97 252.019 92.582 252.031 93.266C252.019 93.962 252.157 94.586 252.445 95.138C252.745 95.678 253.153 96.11 253.669 96.434C254.197 96.746 254.791 96.902 255.451 96.902ZM266.042 98.18C265.19 98.18 264.422 97.97 263.738 97.55C263.066 97.13 262.532 96.554 262.136 95.822C261.752 95.078 261.56 94.238 261.56 93.302C261.56 92.354 261.758 91.514 262.154 90.782C262.55 90.038 263.084 89.456 263.756 89.036C264.428 88.616 265.184 88.406 266.024 88.406C266.492 88.406 266.942 88.478 267.374 88.622C267.818 88.766 268.214 88.97 268.562 89.234C268.91 89.486 269.198 89.78 269.426 90.116C269.654 90.44 269.792 90.782 269.84 91.142L269.426 90.998V84.68H270.776V98H269.444L269.408 95.66L269.75 95.534C269.702 95.87 269.564 96.2 269.336 96.524C269.12 96.836 268.844 97.118 268.508 97.37C268.172 97.622 267.788 97.82 267.356 97.964C266.936 98.108 266.498 98.18 266.042 98.18ZM266.24 96.938C266.864 96.938 267.422 96.782 267.914 96.47C268.406 96.158 268.79 95.726 269.066 95.174C269.354 94.622 269.498 93.992 269.498 93.284C269.498 92.576 269.354 91.952 269.066 91.412C268.79 90.86 268.406 90.428 267.914 90.116C267.422 89.792 266.864 89.63 266.24 89.63C265.592 89.63 265.022 89.792 264.53 90.116C264.05 90.428 263.666 90.86 263.378 91.412C263.102 91.952 262.964 92.576 262.964 93.284C262.964 93.98 263.102 94.604 263.378 95.156C263.654 95.708 264.038 96.146 264.53 96.47C265.022 96.782 265.592 96.938 266.24 96.938ZM277.078 98.18C276.262 98.18 275.524 97.97 274.864 97.55C274.204 97.118 273.682 96.536 273.298 95.804C272.914 95.06 272.722 94.22 272.722 93.284C272.722 92.336 272.92 91.496 273.316 90.764C273.712 90.032 274.24 89.456 274.9 89.036C275.572 88.616 276.322 88.406 277.15 88.406C277.642 88.406 278.098 88.478 278.518 88.622C278.938 88.766 279.31 88.97 279.634 89.234C279.97 89.486 280.246 89.786 280.462 90.134C280.69 90.47 280.846 90.836 280.93 91.232L280.534 91.034L280.588 88.604H281.938V98H280.57V95.696L280.93 95.462C280.846 95.822 280.684 96.17 280.444 96.506C280.204 96.83 279.91 97.118 279.562 97.37C279.226 97.622 278.842 97.82 278.41 97.964C277.99 98.108 277.546 98.18 277.078 98.18ZM277.384 96.884C278.008 96.884 278.566 96.734 279.058 96.434C279.55 96.122 279.934 95.696 280.21 95.156C280.498 94.604 280.642 93.98 280.642 93.284C280.642 92.588 280.498 91.97 280.21 91.43C279.934 90.89 279.55 90.464 279.058 90.152C278.566 89.84 278.008 89.684 277.384 89.684C276.748 89.684 276.184 89.84 275.692 90.152C275.212 90.464 274.828 90.89 274.54 91.43C274.264 91.97 274.126 92.588 274.126 93.284C274.126 93.968 274.264 94.586 274.54 95.138C274.816 95.678 275.2 96.104 275.692 96.416C276.184 96.728 276.748 96.884 277.384 96.884ZM285.941 102.14L287.759 97.712L287.885 98.99L283.169 88.604H284.699L287.921 95.804C288.017 95.996 288.113 96.224 288.209 96.488C288.305 96.74 288.395 96.992 288.479 97.244L287.975 97.19C288.059 96.986 288.137 96.776 288.209 96.56C288.293 96.344 288.371 96.134 288.443 95.93L291.269 88.604H292.817L289.019 98L287.399 102.14H285.941ZM294.74 93.662C294.656 92.906 294.59 92.126 294.542 91.322C294.494 90.506 294.458 89.702 294.434 88.91C294.41 88.118 294.398 87.368 294.398 86.66V85.4H295.856V86.66C295.856 87.404 295.844 88.184 295.82 89C295.796 89.816 295.754 90.626 295.694 91.43C295.646 92.222 295.58 92.966 295.496 93.662H294.74ZM295.064 98.18C294.74 98.18 294.488 98.084 294.308 97.892C294.14 97.7 294.056 97.424 294.056 97.064C294.056 96.74 294.146 96.476 294.326 96.272C294.518 96.056 294.764 95.948 295.064 95.948C295.388 95.948 295.634 96.05 295.802 96.254C295.982 96.446 296.072 96.716 296.072 97.064C296.072 97.4 295.976 97.67 295.784 97.874C295.604 98.078 295.364 98.18 295.064 98.18ZM309.4 98.18C308.5 98.18 307.672 98.024 306.916 97.712C306.16 97.388 305.506 96.938 304.954 96.362C304.402 95.774 303.97 95.084 303.658 94.292C303.358 93.5 303.208 92.636 303.208 91.7C303.208 90.776 303.358 89.93 303.658 89.162C303.97 88.382 304.408 87.704 304.972 87.128C305.536 86.54 306.19 86.09 306.934 85.778C307.678 85.466 308.494 85.31 309.382 85.31C309.97 85.31 310.552 85.406 311.128 85.598C311.704 85.778 312.232 86.03 312.712 86.354C313.204 86.678 313.606 87.05 313.918 87.47L312.946 88.478C312.646 88.118 312.298 87.806 311.902 87.542C311.518 87.278 311.11 87.074 310.678 86.93C310.246 86.786 309.814 86.714 309.382 86.714C308.71 86.714 308.08 86.84 307.492 87.092C306.916 87.332 306.418 87.674 305.998 88.118C305.578 88.562 305.248 89.09 305.008 89.702C304.78 90.314 304.666 90.98 304.666 91.7C304.666 92.444 304.78 93.128 305.008 93.752C305.248 94.376 305.584 94.916 306.016 95.372C306.46 95.816 306.976 96.164 307.564 96.416C308.164 96.656 308.83 96.776 309.562 96.776C309.994 96.776 310.426 96.716 310.858 96.596C311.29 96.464 311.686 96.284 312.046 96.056C312.406 95.828 312.712 95.57 312.964 95.282L313.684 96.452C313.408 96.788 313.036 97.088 312.568 97.352C312.112 97.604 311.608 97.808 311.056 97.964C310.504 98.108 309.952 98.18 309.4 98.18ZM315.804 98V88.604H317.154L317.19 91.106L317.046 90.764C317.178 90.344 317.388 89.954 317.676 89.594C317.976 89.234 318.33 88.946 318.738 88.73C319.146 88.514 319.596 88.406 320.088 88.406C320.292 88.406 320.484 88.424 320.664 88.46C320.844 88.484 320.994 88.52 321.114 88.568L320.736 90.08C320.58 90.008 320.418 89.96 320.25 89.936C320.094 89.9 319.944 89.882 319.8 89.882C319.392 89.882 319.026 89.954 318.702 90.098C318.378 90.242 318.102 90.446 317.874 90.71C317.646 90.962 317.472 91.256 317.352 91.592C317.232 91.928 317.172 92.288 317.172 92.672V98H315.804ZM326.255 98.18C325.319 98.18 324.485 97.976 323.753 97.568C323.033 97.16 322.469 96.59 322.061 95.858C321.653 95.126 321.449 94.286 321.449 93.338C321.449 92.606 321.563 91.946 321.791 91.358C322.019 90.758 322.337 90.236 322.745 89.792C323.165 89.348 323.663 89.006 324.239 88.766C324.815 88.514 325.439 88.388 326.111 88.388C326.747 88.388 327.323 88.502 327.839 88.73C328.367 88.958 328.817 89.276 329.189 89.684C329.573 90.08 329.861 90.554 330.053 91.106C330.245 91.658 330.329 92.264 330.305 92.924L330.287 93.554H322.457L322.259 92.42H329.261L328.937 92.726V92.294C328.913 91.862 328.787 91.448 328.559 91.052C328.331 90.644 328.007 90.314 327.587 90.062C327.179 89.81 326.687 89.684 326.111 89.684C325.439 89.684 324.857 89.822 324.365 90.098C323.873 90.362 323.495 90.758 323.231 91.286C322.967 91.814 322.835 92.468 322.835 93.248C322.835 93.992 322.979 94.64 323.267 95.192C323.555 95.732 323.963 96.152 324.491 96.452C325.031 96.752 325.679 96.902 326.435 96.902C326.879 96.902 327.317 96.83 327.749 96.686C328.193 96.53 328.679 96.23 329.207 95.786L329.909 96.758C329.633 97.034 329.303 97.28 328.919 97.496C328.535 97.7 328.115 97.868 327.659 98C327.203 98.12 326.735 98.18 326.255 98.18ZM335.894 98.18C335.078 98.18 334.34 97.97 333.68 97.55C333.02 97.118 332.498 96.536 332.114 95.804C331.73 95.06 331.538 94.22 331.538 93.284C331.538 92.336 331.736 91.496 332.132 90.764C332.528 90.032 333.056 89.456 333.716 89.036C334.388 88.616 335.138 88.406 335.966 88.406C336.458 88.406 336.914 88.478 337.334 88.622C337.754 88.766 338.126 88.97 338.45 89.234C338.786 89.486 339.062 89.786 339.278 90.134C339.506 90.47 339.662 90.836 339.746 91.232L339.35 91.034L339.404 88.604H340.754V98H339.386V95.696L339.746 95.462C339.662 95.822 339.5 96.17 339.26 96.506C339.02 96.83 338.726 97.118 338.378 97.37C338.042 97.622 337.658 97.82 337.226 97.964C336.806 98.108 336.362 98.18 335.894 98.18ZM336.2 96.884C336.824 96.884 337.382 96.734 337.874 96.434C338.366 96.122 338.75 95.696 339.026 95.156C339.314 94.604 339.458 93.98 339.458 93.284C339.458 92.588 339.314 91.97 339.026 91.43C338.75 90.89 338.366 90.464 337.874 90.152C337.382 89.84 336.824 89.684 336.2 89.684C335.564 89.684 335 89.84 334.508 90.152C334.028 90.464 333.644 90.89 333.356 91.43C333.08 91.97 332.942 92.588 332.942 93.284C332.942 93.968 333.08 94.586 333.356 95.138C333.632 95.678 334.016 96.104 334.508 96.416C335 96.728 335.564 96.884 336.2 96.884ZM344.68 98V86.138H346.03V98H344.68ZM342.556 89.9V88.604H348.406V89.9H342.556ZM354.116 98.18C353.18 98.18 352.346 97.976 351.614 97.568C350.894 97.16 350.33 96.59 349.922 95.858C349.514 95.126 349.31 94.286 349.31 93.338C349.31 92.606 349.424 91.946 349.652 91.358C349.88 90.758 350.198 90.236 350.606 89.792C351.026 89.348 351.524 89.006 352.1 88.766C352.676 88.514 353.3 88.388 353.972 88.388C354.608 88.388 355.184 88.502 355.7 88.73C356.228 88.958 356.678 89.276 357.05 89.684C357.434 90.08 357.722 90.554 357.914 91.106C358.106 91.658 358.19 92.264 358.166 92.924L358.148 93.554H350.318L350.12 92.42H357.122L356.798 92.726V92.294C356.774 91.862 356.648 91.448 356.42 91.052C356.192 90.644 355.868 90.314 355.448 90.062C355.04 89.81 354.548 89.684 353.972 89.684C353.3 89.684 352.718 89.822 352.226 90.098C351.734 90.362 351.356 90.758 351.092 91.286C350.828 91.814 350.696 92.468 350.696 93.248C350.696 93.992 350.84 94.64 351.128 95.192C351.416 95.732 351.824 96.152 352.352 96.452C352.892 96.752 353.54 96.902 354.296 96.902C354.74 96.902 355.178 96.83 355.61 96.686C356.054 96.53 356.54 96.23 357.068 95.786L357.77 96.758C357.494 97.034 357.164 97.28 356.78 97.496C356.396 97.7 355.976 97.868 355.52 98C355.064 98.12 354.596 98.18 354.116 98.18ZM368.8 98.18C367.984 98.18 367.246 97.97 366.586 97.55C365.926 97.118 365.404 96.536 365.02 95.804C364.636 95.06 364.444 94.22 364.444 93.284C364.444 92.336 364.642 91.496 365.038 90.764C365.434 90.032 365.962 89.456 366.622 89.036C367.294 88.616 368.044 88.406 368.872 88.406C369.364 88.406 369.82 88.478 370.24 88.622C370.66 88.766 371.032 88.97 371.356 89.234C371.692 89.486 371.968 89.786 372.184 90.134C372.412 90.47 372.568 90.836 372.652 91.232L372.256 91.034L372.31 88.604H373.66V98H372.292V95.696L372.652 95.462C372.568 95.822 372.406 96.17 372.166 96.506C371.926 96.83 371.632 97.118 371.284 97.37C370.948 97.622 370.564 97.82 370.132 97.964C369.712 98.108 369.268 98.18 368.8 98.18ZM369.106 96.884C369.73 96.884 370.288 96.734 370.78 96.434C371.272 96.122 371.656 95.696 371.932 95.156C372.22 94.604 372.364 93.98 372.364 93.284C372.364 92.588 372.22 91.97 371.932 91.43C371.656 90.89 371.272 90.464 370.78 90.152C370.288 89.84 369.73 89.684 369.106 89.684C368.47 89.684 367.906 89.84 367.414 90.152C366.934 90.464 366.55 90.89 366.262 91.43C365.986 91.97 365.848 92.588 365.848 93.284C365.848 93.968 365.986 94.586 366.262 95.138C366.538 95.678 366.922 96.104 367.414 96.416C367.906 96.728 368.47 96.884 369.106 96.884ZM376.291 98V88.604H377.623L377.677 90.566L377.461 90.656C377.581 90.248 377.815 89.876 378.163 89.54C378.511 89.204 378.925 88.934 379.405 88.73C379.897 88.514 380.401 88.406 380.917 88.406C381.613 88.406 382.195 88.544 382.663 88.82C383.131 89.096 383.485 89.522 383.725 90.098C383.965 90.674 384.085 91.406 384.085 92.294V98H382.717V92.366C382.717 91.742 382.633 91.232 382.465 90.836C382.309 90.428 382.063 90.128 381.727 89.936C381.391 89.744 380.977 89.654 380.485 89.666C380.077 89.666 379.699 89.738 379.351 89.882C379.003 90.014 378.703 90.2 378.451 90.44C378.199 90.68 378.001 90.956 377.857 91.268C377.713 91.58 377.641 91.916 377.641 92.276V98H376.975C376.891 98 376.795 98 376.687 98C376.579 98 376.447 98 376.291 98ZM395.379 98.18C394.563 98.18 393.825 97.97 393.165 97.55C392.505 97.118 391.983 96.536 391.599 95.804C391.215 95.06 391.023 94.22 391.023 93.284C391.023 92.336 391.221 91.496 391.617 90.764C392.013 90.032 392.541 89.456 393.201 89.036C393.873 88.616 394.623 88.406 395.451 88.406C395.943 88.406 396.399 88.478 396.819 88.622C397.239 88.766 397.611 88.97 397.935 89.234C398.271 89.486 398.547 89.786 398.763 90.134C398.991 90.47 399.147 90.836 399.231 91.232L398.835 91.034L398.889 88.604H400.239V98H398.871V95.696L399.231 95.462C399.147 95.822 398.985 96.17 398.745 96.506C398.505 96.83 398.211 97.118 397.863 97.37C397.527 97.622 397.143 97.82 396.711 97.964C396.291 98.108 395.847 98.18 395.379 98.18ZM395.685 96.884C396.309 96.884 396.867 96.734 397.359 96.434C397.851 96.122 398.235 95.696 398.511 95.156C398.799 94.604 398.943 93.98 398.943 93.284C398.943 92.588 398.799 91.97 398.511 91.43C398.235 90.89 397.851 90.464 397.359 90.152C396.867 89.84 396.309 89.684 395.685 89.684C395.049 89.684 394.485 89.84 393.993 90.152C393.513 90.464 393.129 90.89 392.841 91.43C392.565 91.97 392.427 92.588 392.427 93.284C392.427 93.968 392.565 94.586 392.841 95.138C393.117 95.678 393.501 96.104 393.993 96.416C394.485 96.728 395.049 96.884 395.685 96.884ZM406.829 98.18C405.941 98.18 405.149 97.97 404.453 97.55C403.757 97.118 403.205 96.536 402.797 95.804C402.401 95.06 402.203 94.22 402.203 93.284C402.203 92.348 402.401 91.514 402.797 90.782C403.205 90.038 403.757 89.456 404.453 89.036C405.149 88.616 405.947 88.406 406.847 88.406C407.651 88.406 408.383 88.568 409.043 88.892C409.703 89.204 410.231 89.642 410.627 90.206L409.835 91.178C409.607 90.878 409.331 90.614 409.007 90.386C408.695 90.158 408.353 89.984 407.981 89.864C407.621 89.732 407.261 89.666 406.901 89.666C406.265 89.666 405.695 89.828 405.191 90.152C404.687 90.464 404.285 90.89 403.985 91.43C403.697 91.97 403.553 92.588 403.553 93.284C403.553 93.98 403.697 94.604 403.985 95.156C404.285 95.696 404.687 96.122 405.191 96.434C405.695 96.746 406.259 96.902 406.883 96.902C407.243 96.902 407.597 96.848 407.945 96.74C408.293 96.62 408.623 96.452 408.935 96.236C409.247 96.02 409.535 95.75 409.799 95.426L410.591 96.398C410.183 96.938 409.637 97.37 408.953 97.694C408.269 98.018 407.561 98.18 406.829 98.18ZM416.303 98.18C415.415 98.18 414.623 97.97 413.927 97.55C413.231 97.118 412.679 96.536 412.271 95.804C411.875 95.06 411.677 94.22 411.677 93.284C411.677 92.348 411.875 91.514 412.271 90.782C412.679 90.038 413.231 89.456 413.927 89.036C414.623 88.616 415.421 88.406 416.321 88.406C417.125 88.406 417.857 88.568 418.517 88.892C419.177 89.204 419.705 89.642 420.101 90.206L419.309 91.178C419.081 90.878 418.805 90.614 418.481 90.386C418.169 90.158 417.827 89.984 417.455 89.864C417.095 89.732 416.735 89.666 416.375 89.666C415.739 89.666 415.169 89.828 414.665 90.152C414.161 90.464 413.759 90.89 413.459 91.43C413.171 91.97 413.027 92.588 413.027 93.284C413.027 93.98 413.171 94.604 413.459 95.156C413.759 95.696 414.161 96.122 414.665 96.434C415.169 96.746 415.733 96.902 416.357 96.902C416.717 96.902 417.071 96.848 417.419 96.74C417.767 96.62 418.097 96.452 418.409 96.236C418.721 96.02 419.009 95.75 419.273 95.426L420.065 96.398C419.657 96.938 419.111 97.37 418.427 97.694C417.743 98.018 417.035 98.18 416.303 98.18ZM425.976 98.18C425.04 98.18 424.206 97.97 423.474 97.55C422.754 97.13 422.184 96.548 421.764 95.804C421.356 95.06 421.152 94.214 421.152 93.266C421.152 92.33 421.356 91.496 421.764 90.764C422.184 90.032 422.754 89.456 423.474 89.036C424.206 88.616 425.04 88.406 425.976 88.406C426.9 88.406 427.722 88.616 428.442 89.036C429.174 89.456 429.744 90.032 430.152 90.764C430.572 91.496 430.782 92.33 430.782 93.266C430.782 94.214 430.572 95.06 430.152 95.804C429.744 96.548 429.174 97.13 428.442 97.55C427.722 97.97 426.9 98.18 425.976 98.18ZM425.976 96.902C426.636 96.902 427.224 96.746 427.74 96.434C428.256 96.11 428.658 95.678 428.946 95.138C429.234 94.586 429.378 93.962 429.378 93.266C429.378 92.57 429.234 91.952 428.946 91.412C428.658 90.872 428.256 90.452 427.74 90.152C427.224 89.84 426.636 89.684 425.976 89.684C425.316 89.684 424.722 89.84 424.194 90.152C423.678 90.452 423.27 90.878 422.97 91.43C422.682 91.97 422.544 92.582 422.556 93.266C422.544 93.962 422.682 94.586 422.97 95.138C423.27 95.678 423.678 96.11 424.194 96.434C424.722 96.746 425.316 96.902 425.976 96.902ZM436.082 98.18C435.362 98.18 434.75 98.036 434.246 97.748C433.754 97.448 433.376 97.016 433.112 96.452C432.86 95.888 432.734 95.186 432.734 94.346V88.604H434.102V94.076C434.102 94.712 434.186 95.246 434.354 95.678C434.534 96.098 434.798 96.416 435.146 96.632C435.506 96.848 435.944 96.956 436.46 96.956C436.856 96.956 437.222 96.89 437.558 96.758C437.894 96.614 438.188 96.422 438.44 96.182C438.692 95.942 438.89 95.66 439.034 95.336C439.178 95.012 439.25 94.67 439.25 94.31V88.604H440.6V98H439.268L439.214 96.02L439.43 95.912C439.286 96.332 439.046 96.716 438.71 97.064C438.374 97.4 437.972 97.67 437.504 97.874C437.048 98.078 436.574 98.18 436.082 98.18ZM443.228 98V88.604H444.56L444.614 90.566L444.398 90.656C444.518 90.248 444.752 89.876 445.1 89.54C445.448 89.204 445.862 88.934 446.342 88.73C446.834 88.514 447.338 88.406 447.854 88.406C448.55 88.406 449.132 88.544 449.6 88.82C450.068 89.096 450.422 89.522 450.662 90.098C450.902 90.674 451.022 91.406 451.022 92.294V98H449.654V92.366C449.654 91.742 449.57 91.232 449.402 90.836C449.246 90.428 449 90.128 448.664 89.936C448.328 89.744 447.914 89.654 447.422 89.666C447.014 89.666 446.636 89.738 446.288 89.882C445.94 90.014 445.64 90.2 445.388 90.44C445.136 90.68 444.938 90.956 444.794 91.268C444.65 91.58 444.578 91.916 444.578 92.276V98H443.912C443.828 98 443.732 98 443.624 98C443.516 98 443.384 98 443.228 98ZM454.895 98V86.138H456.245V98H454.895ZM452.771 89.9V88.604H458.621V89.9H452.771ZM466.62 98V86.138H467.97V98H466.62ZM464.496 89.9V88.604H470.346V89.9H464.496ZM476.074 98.18C475.138 98.18 474.304 97.97 473.572 97.55C472.852 97.13 472.282 96.548 471.862 95.804C471.454 95.06 471.25 94.214 471.25 93.266C471.25 92.33 471.454 91.496 471.862 90.764C472.282 90.032 472.852 89.456 473.572 89.036C474.304 88.616 475.138 88.406 476.074 88.406C476.998 88.406 477.82 88.616 478.54 89.036C479.272 89.456 479.842 90.032 480.25 90.764C480.67 91.496 480.88 92.33 480.88 93.266C480.88 94.214 480.67 95.06 480.25 95.804C479.842 96.548 479.272 97.13 478.54 97.55C477.82 97.97 476.998 98.18 476.074 98.18ZM476.074 96.902C476.734 96.902 477.322 96.746 477.838 96.434C478.354 96.11 478.756 95.678 479.044 95.138C479.332 94.586 479.476 93.962 479.476 93.266C479.476 92.57 479.332 91.952 479.044 91.412C478.756 90.872 478.354 90.452 477.838 90.152C477.322 89.84 476.734 89.684 476.074 89.684C475.414 89.684 474.82 89.84 474.292 90.152C473.776 90.452 473.368 90.878 473.068 91.43C472.78 91.97 472.642 92.582 472.654 93.266C472.642 93.962 472.78 94.586 473.068 95.138C473.368 95.678 473.776 96.11 474.292 96.434C474.82 96.746 475.414 96.902 476.074 96.902ZM491.224 98.18C490.504 98.18 489.892 98.036 489.388 97.748C488.896 97.448 488.518 97.016 488.254 96.452C488.002 95.888 487.876 95.186 487.876 94.346V88.604H489.244V94.076C489.244 94.712 489.328 95.246 489.496 95.678C489.676 96.098 489.94 96.416 490.288 96.632C490.648 96.848 491.086 96.956 491.602 96.956C491.998 96.956 492.364 96.89 492.7 96.758C493.036 96.614 493.33 96.422 493.582 96.182C493.834 95.942 494.032 95.66 494.176 95.336C494.32 95.012 494.392 94.67 494.392 94.31V88.604H495.742V98H494.41L494.356 96.02L494.572 95.912C494.428 96.332 494.188 96.716 493.852 97.064C493.516 97.4 493.114 97.67 492.646 97.874C492.19 98.078 491.716 98.18 491.224 98.18ZM498.371 98V88.604H499.703L499.757 90.566L499.541 90.656C499.661 90.248 499.895 89.876 500.243 89.54C500.591 89.204 501.005 88.934 501.485 88.73C501.977 88.514 502.481 88.406 502.997 88.406C503.693 88.406 504.275 88.544 504.743 88.82C505.211 89.096 505.565 89.522 505.805 90.098C506.045 90.674 506.165 91.406 506.165 92.294V98H504.797V92.366C504.797 91.742 504.713 91.232 504.545 90.836C504.389 90.428 504.143 90.128 503.807 89.936C503.471 89.744 503.057 89.654 502.565 89.666C502.157 89.666 501.779 89.738 501.431 89.882C501.083 90.014 500.783 90.2 500.531 90.44C500.279 90.68 500.081 90.956 499.937 91.268C499.793 91.58 499.721 91.916 499.721 92.276V98H499.055C498.971 98 498.875 98 498.767 98C498.659 98 498.527 98 498.371 98ZM508.778 98V84.68H510.128V98H508.778ZM516.767 98.18C515.831 98.18 514.997 97.97 514.265 97.55C513.545 97.13 512.975 96.548 512.555 95.804C512.147 95.06 511.943 94.214 511.943 93.266C511.943 92.33 512.147 91.496 512.555 90.764C512.975 90.032 513.545 89.456 514.265 89.036C514.997 88.616 515.831 88.406 516.767 88.406C517.691 88.406 518.513 88.616 519.233 89.036C519.965 89.456 520.535 90.032 520.943 90.764C521.363 91.496 521.573 92.33 521.573 93.266C521.573 94.214 521.363 95.06 520.943 95.804C520.535 96.548 519.965 97.13 519.233 97.55C518.513 97.97 517.691 98.18 516.767 98.18ZM516.767 96.902C517.427 96.902 518.015 96.746 518.531 96.434C519.047 96.11 519.449 95.678 519.737 95.138C520.025 94.586 520.169 93.962 520.169 93.266C520.169 92.57 520.025 91.952 519.737 91.412C519.449 90.872 519.047 90.452 518.531 90.152C518.015 89.84 517.427 89.684 516.767 89.684C516.107 89.684 515.513 89.84 514.985 90.152C514.469 90.452 514.061 90.878 513.761 91.43C513.473 91.97 513.335 92.582 513.347 93.266C513.335 93.962 513.473 94.586 513.761 95.138C514.061 95.678 514.469 96.11 514.985 96.434C515.513 96.746 516.107 96.902 516.767 96.902ZM527.503 98.18C526.615 98.18 525.823 97.97 525.127 97.55C524.431 97.118 523.879 96.536 523.471 95.804C523.075 95.06 522.877 94.22 522.877 93.284C522.877 92.348 523.075 91.514 523.471 90.782C523.879 90.038 524.431 89.456 525.127 89.036C525.823 88.616 526.621 88.406 527.521 88.406C528.325 88.406 529.057 88.568 529.717 88.892C530.377 89.204 530.905 89.642 531.301 90.206L530.509 91.178C530.281 90.878 530.005 90.614 529.681 90.386C529.369 90.158 529.027 89.984 528.655 89.864C528.295 89.732 527.935 89.666 527.575 89.666C526.939 89.666 526.369 89.828 525.865 90.152C525.361 90.464 524.959 90.89 524.659 91.43C524.371 91.97 524.227 92.588 524.227 93.284C524.227 93.98 524.371 94.604 524.659 95.156C524.959 95.696 525.361 96.122 525.865 96.434C526.369 96.746 526.933 96.902 527.557 96.902C527.917 96.902 528.271 96.848 528.619 96.74C528.967 96.62 529.297 96.452 529.609 96.236C529.921 96.02 530.209 95.75 530.473 95.426L531.265 96.398C530.857 96.938 530.311 97.37 529.627 97.694C528.943 98.018 528.235 98.18 527.503 98.18ZM534.223 94.976L534.169 93.41L539.083 88.604H540.901L534.223 94.976ZM533.017 98V84.68H534.367V98H533.017ZM539.461 98L535.501 93.41L536.455 92.474L541.225 98H539.461ZM551.888 98.18C550.952 98.18 550.118 97.976 549.386 97.568C548.666 97.16 548.102 96.59 547.694 95.858C547.286 95.126 547.082 94.286 547.082 93.338C547.082 92.606 547.196 91.946 547.424 91.358C547.652 90.758 547.97 90.236 548.378 89.792C548.798 89.348 549.296 89.006 549.872 88.766C550.448 88.514 551.072 88.388 551.744 88.388C552.38 88.388 552.956 88.502 553.472 88.73C554 88.958 554.45 89.276 554.822 89.684C555.206 90.08 555.494 90.554 555.686 91.106C555.878 91.658 555.962 92.264 555.938 92.924L555.92 93.554H548.09L547.892 92.42H554.894L554.57 92.726V92.294C554.546 91.862 554.42 91.448 554.192 91.052C553.964 90.644 553.64 90.314 553.22 90.062C552.812 89.81 552.32 89.684 551.744 89.684C551.072 89.684 550.49 89.822 549.998 90.098C549.506 90.362 549.128 90.758 548.864 91.286C548.6 91.814 548.468 92.468 548.468 93.248C548.468 93.992 548.612 94.64 548.9 95.192C549.188 95.732 549.596 96.152 550.124 96.452C550.664 96.752 551.312 96.902 552.068 96.902C552.512 96.902 552.95 96.83 553.382 96.686C553.826 96.53 554.312 96.23 554.84 95.786L555.542 96.758C555.266 97.034 554.936 97.28 554.552 97.496C554.168 97.7 553.748 97.868 553.292 98C552.836 98.12 552.368 98.18 551.888 98.18ZM564.192 98L560.934 93.806L560.772 93.608L556.866 88.604H558.576L561.78 92.726L561.96 92.96L565.884 98H564.192ZM556.794 98L560.628 93.05L561.438 94.022L558.414 98H556.794ZM562.05 93.392L561.276 92.438L564.012 88.604H565.65L562.05 93.392ZM570.903 98.18C570.015 98.18 569.223 97.97 568.527 97.55C567.831 97.118 567.279 96.536 566.871 95.804C566.475 95.06 566.277 94.22 566.277 93.284C566.277 92.348 566.475 91.514 566.871 90.782C567.279 90.038 567.831 89.456 568.527 89.036C569.223 88.616 570.021 88.406 570.921 88.406C571.725 88.406 572.457 88.568 573.117 88.892C573.777 89.204 574.305 89.642 574.701 90.206L573.909 91.178C573.681 90.878 573.405 90.614 573.081 90.386C572.769 90.158 572.427 89.984 572.055 89.864C571.695 89.732 571.335 89.666 570.975 89.666C570.339 89.666 569.769 89.828 569.265 90.152C568.761 90.464 568.359 90.89 568.059 91.43C567.771 91.97 567.627 92.588 567.627 93.284C567.627 93.98 567.771 94.604 568.059 95.156C568.359 95.696 568.761 96.122 569.265 96.434C569.769 96.746 570.333 96.902 570.957 96.902C571.317 96.902 571.671 96.848 572.019 96.74C572.367 96.62 572.697 96.452 573.009 96.236C573.321 96.02 573.609 95.75 573.873 95.426L574.665 96.398C574.257 96.938 573.711 97.37 573.027 97.694C572.343 98.018 571.635 98.18 570.903 98.18ZM576.454 98V84.68H577.804V98H576.454ZM583.703 98.18C582.983 98.18 582.371 98.036 581.867 97.748C581.375 97.448 580.997 97.016 580.733 96.452C580.481 95.888 580.355 95.186 580.355 94.346V88.604H581.723V94.076C581.723 94.712 581.807 95.246 581.975 95.678C582.155 96.098 582.419 96.416 582.767 96.632C583.127 96.848 583.565 96.956 584.081 96.956C584.477 96.956 584.843 96.89 585.179 96.758C585.515 96.614 585.809 96.422 586.061 96.182C586.313 95.942 586.511 95.66 586.655 95.336C586.799 95.012 586.871 94.67 586.871 94.31V88.604H588.221V98H586.889L586.835 96.02L587.051 95.912C586.907 96.332 586.667 96.716 586.331 97.064C585.995 97.4 585.593 97.67 585.125 97.874C584.669 98.078 584.195 98.18 583.703 98.18ZM593.927 98.18C593.123 98.18 592.403 98.03 591.767 97.73C591.131 97.43 590.627 97.034 590.255 96.542L591.209 95.714C591.557 96.134 591.965 96.452 592.433 96.668C592.913 96.884 593.447 96.992 594.035 96.992C594.335 96.992 594.605 96.962 594.845 96.902C595.085 96.83 595.295 96.728 595.475 96.596C595.655 96.464 595.793 96.308 595.889 96.128C595.985 95.948 596.033 95.75 596.033 95.534C596.033 95.138 595.859 94.808 595.511 94.544C595.355 94.436 595.133 94.328 594.845 94.22C594.557 94.1 594.209 93.986 593.801 93.878C593.129 93.686 592.571 93.494 592.127 93.302C591.683 93.098 591.335 92.864 591.083 92.6C590.903 92.384 590.765 92.15 590.669 91.898C590.585 91.646 590.543 91.37 590.543 91.07C590.543 90.686 590.621 90.332 590.777 90.008C590.945 89.684 591.173 89.402 591.461 89.162C591.761 88.91 592.109 88.724 592.505 88.604C592.913 88.472 593.351 88.406 593.819 88.406C594.263 88.406 594.701 88.466 595.133 88.586C595.565 88.706 595.967 88.88 596.339 89.108C596.711 89.336 597.029 89.606 597.293 89.918L596.465 90.818C596.237 90.578 595.985 90.362 595.709 90.17C595.433 89.978 595.139 89.828 594.827 89.72C594.527 89.612 594.215 89.558 593.891 89.558C593.603 89.558 593.333 89.594 593.081 89.666C592.841 89.738 592.631 89.84 592.451 89.972C592.283 90.092 592.151 90.242 592.055 90.422C591.971 90.602 591.929 90.8 591.929 91.016C591.929 91.196 591.965 91.358 592.037 91.502C592.109 91.646 592.211 91.772 592.343 91.88C592.511 92.012 592.745 92.138 593.045 92.258C593.357 92.366 593.741 92.48 594.197 92.6C594.725 92.744 595.169 92.894 595.529 93.05C595.901 93.194 596.207 93.368 596.447 93.572C596.771 93.812 596.999 94.088 597.131 94.4C597.275 94.712 597.347 95.066 597.347 95.462C597.347 95.99 597.197 96.458 596.897 96.866C596.609 97.274 596.207 97.598 595.691 97.838C595.175 98.066 594.587 98.18 593.927 98.18ZM599.822 98V88.604H601.172V98H599.822ZM600.488 86.57C600.152 86.57 599.894 86.486 599.714 86.318C599.546 86.138 599.462 85.898 599.462 85.598C599.462 85.298 599.552 85.058 599.732 84.878C599.912 84.698 600.164 84.608 600.488 84.608C600.812 84.608 601.064 84.698 601.244 84.878C601.424 85.046 601.514 85.286 601.514 85.598C601.514 85.886 601.424 86.12 601.244 86.3C601.064 86.48 600.812 86.57 600.488 86.57ZM607.037 98L603.077 88.604H604.571L607.703 96.29L607.343 96.488L610.781 88.604H612.221L608.009 98H607.037ZM617.683 98.18C616.747 98.18 615.913 97.976 615.181 97.568C614.461 97.16 613.897 96.59 613.489 95.858C613.081 95.126 612.877 94.286 612.877 93.338C612.877 92.606 612.991 91.946 613.219 91.358C613.447 90.758 613.765 90.236 614.173 89.792C614.593 89.348 615.091 89.006 615.667 88.766C616.243 88.514 616.867 88.388 617.539 88.388C618.175 88.388 618.751 88.502 619.267 88.73C619.795 88.958 620.245 89.276 620.617 89.684C621.001 90.08 621.289 90.554 621.481 91.106C621.673 91.658 621.757 92.264 621.733 92.924L621.715 93.554H613.885L613.687 92.42H620.689L620.365 92.726V92.294C620.341 91.862 620.215 91.448 619.987 91.052C619.759 90.644 619.435 90.314 619.015 90.062C618.607 89.81 618.115 89.684 617.539 89.684C616.867 89.684 616.285 89.822 615.793 90.098C615.301 90.362 614.923 90.758 614.659 91.286C614.395 91.814 614.263 92.468 614.263 93.248C614.263 93.992 614.407 94.64 614.695 95.192C614.983 95.732 615.391 96.152 615.919 96.452C616.459 96.752 617.107 96.902 617.863 96.902C618.307 96.902 618.745 96.83 619.177 96.686C619.621 96.53 620.107 96.23 620.635 95.786L621.337 96.758C621.061 97.034 620.731 97.28 620.347 97.496C619.963 97.7 619.543 97.868 619.087 98C618.631 98.12 618.163 98.18 617.683 98.18ZM629.775 98V87.146C629.775 86.678 629.877 86.264 630.081 85.904C630.285 85.544 630.573 85.262 630.945 85.058C631.329 84.842 631.773 84.734 632.277 84.734C632.661 84.734 633.003 84.806 633.303 84.95C633.615 85.082 633.873 85.268 634.077 85.508L633.609 86.57C633.417 86.366 633.207 86.222 632.979 86.138C632.763 86.042 632.553 85.994 632.349 85.994C632.085 85.994 631.863 86.042 631.683 86.138C631.503 86.222 631.365 86.354 631.269 86.534C631.185 86.702 631.143 86.906 631.143 87.146V98H630.513C630.381 98 630.255 98 630.135 98C630.015 98 629.895 98 629.775 98ZM628.101 89.936V88.676H633.537V89.936H628.101ZM639.286 98.18C638.35 98.18 637.516 97.976 636.784 97.568C636.064 97.16 635.5 96.59 635.092 95.858C634.684 95.126 634.48 94.286 634.48 93.338C634.48 92.606 634.594 91.946 634.822 91.358C635.05 90.758 635.368 90.236 635.776 89.792C636.196 89.348 636.694 89.006 637.27 88.766C637.846 88.514 638.47 88.388 639.142 88.388C639.778 88.388 640.354 88.502 640.87 88.73C641.398 88.958 641.848 89.276 642.22 89.684C642.604 90.08 642.892 90.554 643.084 91.106C643.276 91.658 643.36 92.264 643.336 92.924L643.318 93.554H635.488L635.29 92.42H642.292L641.968 92.726V92.294C641.944 91.862 641.818 91.448 641.59 91.052C641.362 90.644 641.038 90.314 640.618 90.062C640.21 89.81 639.718 89.684 639.142 89.684C638.47 89.684 637.888 89.822 637.396 90.098C636.904 90.362 636.526 90.758 636.262 91.286C635.998 91.814 635.866 92.468 635.866 93.248C635.866 93.992 636.01 94.64 636.298 95.192C636.586 95.732 636.994 96.152 637.522 96.452C638.062 96.752 638.71 96.902 639.466 96.902C639.91 96.902 640.348 96.83 640.78 96.686C641.224 96.53 641.71 96.23 642.238 95.786L642.94 96.758C642.664 97.034 642.334 97.28 641.95 97.496C641.566 97.7 641.146 97.868 640.69 98C640.234 98.12 639.766 98.18 639.286 98.18ZM648.925 98.18C648.109 98.18 647.371 97.97 646.711 97.55C646.051 97.118 645.529 96.536 645.145 95.804C644.761 95.06 644.569 94.22 644.569 93.284C644.569 92.336 644.767 91.496 645.163 90.764C645.559 90.032 646.087 89.456 646.747 89.036C647.419 88.616 648.169 88.406 648.997 88.406C649.489 88.406 649.945 88.478 650.365 88.622C650.785 88.766 651.157 88.97 651.481 89.234C651.817 89.486 652.093 89.786 652.309 90.134C652.537 90.47 652.693 90.836 652.777 91.232L652.381 91.034L652.435 88.604H653.785V98H652.417V95.696L652.777 95.462C652.693 95.822 652.531 96.17 652.291 96.506C652.051 96.83 651.757 97.118 651.409 97.37C651.073 97.622 650.689 97.82 650.257 97.964C649.837 98.108 649.393 98.18 648.925 98.18ZM649.231 96.884C649.855 96.884 650.413 96.734 650.905 96.434C651.397 96.122 651.781 95.696 652.057 95.156C652.345 94.604 652.489 93.98 652.489 93.284C652.489 92.588 652.345 91.97 652.057 91.43C651.781 90.89 651.397 90.464 650.905 90.152C650.413 89.84 649.855 89.684 649.231 89.684C648.595 89.684 648.031 89.84 647.539 90.152C647.059 90.464 646.675 90.89 646.387 91.43C646.111 91.97 645.973 92.588 645.973 93.284C645.973 93.968 646.111 94.586 646.387 95.138C646.663 95.678 647.047 96.104 647.539 96.416C648.031 96.728 648.595 96.884 649.231 96.884ZM657.712 98V86.138H659.062V98H657.712ZM655.588 89.9V88.604H661.438V89.9H655.588ZM666.425 98.18C665.705 98.18 665.093 98.036 664.589 97.748C664.097 97.448 663.719 97.016 663.455 96.452C663.203 95.888 663.077 95.186 663.077 94.346V88.604H664.445V94.076C664.445 94.712 664.529 95.246 664.697 95.678C664.877 96.098 665.141 96.416 665.489 96.632C665.849 96.848 666.287 96.956 666.803 96.956C667.199 96.956 667.565 96.89 667.901 96.758C668.237 96.614 668.531 96.422 668.783 96.182C669.035 95.942 669.233 95.66 669.377 95.336C669.521 95.012 669.593 94.67 669.593 94.31V88.604H670.943V98H669.611L669.557 96.02L669.773 95.912C669.629 96.332 669.389 96.716 669.053 97.064C668.717 97.4 668.315 97.67 667.847 97.874C667.391 98.078 666.917 98.18 666.425 98.18ZM673.572 98V88.604H674.922L674.958 91.106L674.814 90.764C674.946 90.344 675.156 89.954 675.444 89.594C675.744 89.234 676.098 88.946 676.506 88.73C676.914 88.514 677.364 88.406 677.856 88.406C678.06 88.406 678.252 88.424 678.432 88.46C678.612 88.484 678.762 88.52 678.882 88.568L678.504 90.08C678.348 90.008 678.186 89.96 678.018 89.936C677.862 89.9 677.712 89.882 677.568 89.882C677.16 89.882 676.794 89.954 676.47 90.098C676.146 90.242 675.87 90.446 675.642 90.71C675.414 90.962 675.24 91.256 675.12 91.592C675 91.928 674.94 92.288 674.94 92.672V98H673.572ZM684.022 98.18C683.086 98.18 682.252 97.976 681.52 97.568C680.8 97.16 680.236 96.59 679.828 95.858C679.42 95.126 679.216 94.286 679.216 93.338C679.216 92.606 679.33 91.946 679.558 91.358C679.786 90.758 680.104 90.236 680.512 89.792C680.932 89.348 681.43 89.006 682.006 88.766C682.582 88.514 683.206 88.388 683.878 88.388C684.514 88.388 685.09 88.502 685.606 88.73C686.134 88.958 686.584 89.276 686.956 89.684C687.34 90.08 687.628 90.554 687.82 91.106C688.012 91.658 688.096 92.264 688.072 92.924L688.054 93.554H680.224L680.026 92.42H687.028L686.704 92.726V92.294C686.68 91.862 686.554 91.448 686.326 91.052C686.098 90.644 685.774 90.314 685.354 90.062C684.946 89.81 684.454 89.684 683.878 89.684C683.206 89.684 682.624 89.822 682.132 90.098C681.64 90.362 681.262 90.758 680.998 91.286C680.734 91.814 680.602 92.468 680.602 93.248C680.602 93.992 680.746 94.64 681.034 95.192C681.322 95.732 681.73 96.152 682.258 96.452C682.798 96.752 683.446 96.902 684.202 96.902C684.646 96.902 685.084 96.83 685.516 96.686C685.96 96.53 686.446 96.23 686.974 95.786L687.676 96.758C687.4 97.034 687.07 97.28 686.686 97.496C686.302 97.7 685.882 97.868 685.426 98C684.97 98.12 684.502 98.18 684.022 98.18ZM693.068 98.18C692.264 98.18 691.544 98.03 690.908 97.73C690.272 97.43 689.768 97.034 689.396 96.542L690.35 95.714C690.698 96.134 691.106 96.452 691.574 96.668C692.054 96.884 692.588 96.992 693.176 96.992C693.476 96.992 693.746 96.962 693.986 96.902C694.226 96.83 694.436 96.728 694.616 96.596C694.796 96.464 694.934 96.308 695.03 96.128C695.126 95.948 695.174 95.75 695.174 95.534C695.174 95.138 695 94.808 694.652 94.544C694.496 94.436 694.274 94.328 693.986 94.22C693.698 94.1 693.35 93.986 692.942 93.878C692.27 93.686 691.712 93.494 691.268 93.302C690.824 93.098 690.476 92.864 690.224 92.6C690.044 92.384 689.906 92.15 689.81 91.898C689.726 91.646 689.684 91.37 689.684 91.07C689.684 90.686 689.762 90.332 689.918 90.008C690.086 89.684 690.314 89.402 690.602 89.162C690.902 88.91 691.25 88.724 691.646 88.604C692.054 88.472 692.492 88.406 692.96 88.406C693.404 88.406 693.842 88.466 694.274 88.586C694.706 88.706 695.108 88.88 695.48 89.108C695.852 89.336 696.17 89.606 696.434 89.918L695.606 90.818C695.378 90.578 695.126 90.362 694.85 90.17C694.574 89.978 694.28 89.828 693.968 89.72C693.668 89.612 693.356 89.558 693.032 89.558C692.744 89.558 692.474 89.594 692.222 89.666C691.982 89.738 691.772 89.84 691.592 89.972C691.424 90.092 691.292 90.242 691.196 90.422C691.112 90.602 691.07 90.8 691.07 91.016C691.07 91.196 691.106 91.358 691.178 91.502C691.25 91.646 691.352 91.772 691.484 91.88C691.652 92.012 691.886 92.138 692.186 92.258C692.498 92.366 692.882 92.48 693.338 92.6C693.866 92.744 694.31 92.894 694.67 93.05C695.042 93.194 695.348 93.368 695.588 93.572C695.912 93.812 696.14 94.088 696.272 94.4C696.416 94.712 696.488 95.066 696.488 95.462C696.488 95.99 696.338 96.458 696.038 96.866C695.75 97.274 695.348 97.598 694.832 97.838C694.316 98.066 693.728 98.18 693.068 98.18ZM707.32 98.18C706.504 98.18 705.766 97.97 705.106 97.55C704.446 97.118 703.924 96.536 703.54 95.804C703.156 95.06 702.964 94.22 702.964 93.284C702.964 92.336 703.162 91.496 703.558 90.764C703.954 90.032 704.482 89.456 705.142 89.036C705.814 88.616 706.564 88.406 707.392 88.406C707.884 88.406 708.34 88.478 708.76 88.622C709.18 88.766 709.552 88.97 709.876 89.234C710.212 89.486 710.488 89.786 710.704 90.134C710.932 90.47 711.088 90.836 711.172 91.232L710.776 91.034L710.83 88.604H712.18V98H710.812V95.696L711.172 95.462C711.088 95.822 710.926 96.17 710.686 96.506C710.446 96.83 710.152 97.118 709.804 97.37C709.468 97.622 709.084 97.82 708.652 97.964C708.232 98.108 707.788 98.18 707.32 98.18ZM707.626 96.884C708.25 96.884 708.808 96.734 709.3 96.434C709.792 96.122 710.176 95.696 710.452 95.156C710.74 94.604 710.884 93.98 710.884 93.284C710.884 92.588 710.74 91.97 710.452 91.43C710.176 90.89 709.792 90.464 709.3 90.152C708.808 89.84 708.25 89.684 707.626 89.684C706.99 89.684 706.426 89.84 705.934 90.152C705.454 90.464 705.07 90.89 704.782 91.43C704.506 91.97 704.368 92.588 704.368 93.284C704.368 93.968 704.506 94.586 704.782 95.138C705.058 95.678 705.442 96.104 705.934 96.416C706.426 96.728 706.99 96.884 707.626 96.884ZM714.81 98V88.604H716.142L716.196 90.566L715.98 90.656C716.1 90.248 716.334 89.876 716.682 89.54C717.03 89.204 717.444 88.934 717.924 88.73C718.416 88.514 718.92 88.406 719.436 88.406C720.132 88.406 720.714 88.544 721.182 88.82C721.65 89.096 722.004 89.522 722.244 90.098C722.484 90.674 722.604 91.406 722.604 92.294V98H721.236V92.366C721.236 91.742 721.152 91.232 720.984 90.836C720.828 90.428 720.582 90.128 720.246 89.936C719.91 89.744 719.496 89.654 719.004 89.666C718.596 89.666 718.218 89.738 717.87 89.882C717.522 90.014 717.222 90.2 716.97 90.44C716.718 90.68 716.52 90.956 716.376 91.268C716.232 91.58 716.16 91.916 716.16 92.276V98H715.494C715.41 98 715.314 98 715.206 98C715.098 98 714.966 98 714.81 98ZM728.997 98.18C728.145 98.18 727.377 97.97 726.693 97.55C726.021 97.13 725.487 96.554 725.091 95.822C724.707 95.078 724.515 94.238 724.515 93.302C724.515 92.354 724.713 91.514 725.109 90.782C725.505 90.038 726.039 89.456 726.711 89.036C727.383 88.616 728.139 88.406 728.979 88.406C729.447 88.406 729.897 88.478 730.329 88.622C730.773 88.766 731.169 88.97 731.517 89.234C731.865 89.486 732.153 89.78 732.381 90.116C732.609 90.44 732.747 90.782 732.795 91.142L732.381 90.998V84.68H733.731V98H732.399L732.363 95.66L732.705 95.534C732.657 95.87 732.519 96.2 732.291 96.524C732.075 96.836 731.799 97.118 731.463 97.37C731.127 97.622 730.743 97.82 730.311 97.964C729.891 98.108 729.453 98.18 728.997 98.18ZM729.195 96.938C729.819 96.938 730.377 96.782 730.869 96.47C731.361 96.158 731.745 95.726 732.021 95.174C732.309 94.622 732.453 93.992 732.453 93.284C732.453 92.576 732.309 91.952 732.021 91.412C731.745 90.86 731.361 90.428 730.869 90.116C730.377 89.792 729.819 89.63 729.195 89.63C728.547 89.63 727.977 89.792 727.485 90.116C727.005 90.428 726.621 90.86 726.333 91.412C726.057 91.952 725.919 92.576 725.919 93.284C725.919 93.98 726.057 94.604 726.333 95.156C726.609 95.708 726.993 96.146 727.485 96.47C727.977 96.782 728.547 96.938 729.195 96.938ZM741.406 101.96V88.604H742.756L742.792 90.89L742.54 90.926C742.648 90.47 742.882 90.056 743.242 89.684C743.602 89.3 744.04 88.994 744.556 88.766C745.072 88.538 745.618 88.424 746.194 88.424C747.034 88.424 747.784 88.634 748.444 89.054C749.116 89.474 749.65 90.05 750.046 90.782C750.442 91.514 750.64 92.354 750.64 93.302C750.64 94.238 750.448 95.072 750.064 95.804C749.68 96.536 749.152 97.118 748.48 97.55C747.808 97.97 747.052 98.18 746.212 98.18C745.624 98.18 745.066 98.06 744.538 97.82C744.01 97.58 743.56 97.268 743.188 96.884C742.816 96.488 742.57 96.062 742.45 95.606H742.774V101.96H741.406ZM745.996 96.884C746.632 96.884 747.196 96.728 747.688 96.416C748.18 96.104 748.57 95.678 748.858 95.138C749.146 94.598 749.29 93.986 749.29 93.302C749.29 92.606 749.146 91.988 748.858 91.448C748.57 90.908 748.18 90.482 747.688 90.17C747.196 89.858 746.632 89.702 745.996 89.702C745.36 89.702 744.79 89.858 744.286 90.17C743.794 90.47 743.404 90.89 743.116 91.43C742.828 91.97 742.684 92.588 742.684 93.284C742.684 93.98 742.828 94.598 743.116 95.138C743.404 95.678 743.794 96.104 744.286 96.416C744.79 96.728 745.36 96.884 745.996 96.884ZM756.743 98.18C755.807 98.18 754.973 97.976 754.241 97.568C753.521 97.16 752.957 96.59 752.549 95.858C752.141 95.126 751.937 94.286 751.937 93.338C751.937 92.606 752.051 91.946 752.279 91.358C752.507 90.758 752.825 90.236 753.233 89.792C753.653 89.348 754.151 89.006 754.727 88.766C755.303 88.514 755.927 88.388 756.599 88.388C757.235 88.388 757.811 88.502 758.327 88.73C758.855 88.958 759.305 89.276 759.677 89.684C760.061 90.08 760.349 90.554 760.541 91.106C760.733 91.658 760.817 92.264 760.793 92.924L760.775 93.554H752.945L752.747 92.42H759.749L759.425 92.726V92.294C759.401 91.862 759.275 91.448 759.047 91.052C758.819 90.644 758.495 90.314 758.075 90.062C757.667 89.81 757.175 89.684 756.599 89.684C755.927 89.684 755.345 89.822 754.853 90.098C754.361 90.362 753.983 90.758 753.719 91.286C753.455 91.814 753.323 92.468 753.323 93.248C753.323 93.992 753.467 94.64 753.755 95.192C754.043 95.732 754.451 96.152 754.979 96.452C755.519 96.752 756.167 96.902 756.923 96.902C757.367 96.902 757.805 96.83 758.237 96.686C758.681 96.53 759.167 96.23 759.695 95.786L760.397 96.758C760.121 97.034 759.791 97.28 759.407 97.496C759.023 97.7 758.603 97.868 758.147 98C757.691 98.12 757.223 98.18 756.743 98.18ZM762.71 98V88.604H764.06L764.096 91.106L763.952 90.764C764.084 90.344 764.294 89.954 764.582 89.594C764.882 89.234 765.236 88.946 765.644 88.73C766.052 88.514 766.502 88.406 766.994 88.406C767.198 88.406 767.39 88.424 767.57 88.46C767.75 88.484 767.9 88.52 768.02 88.568L767.642 90.08C767.486 90.008 767.324 89.96 767.156 89.936C767 89.9 766.85 89.882 766.706 89.882C766.298 89.882 765.932 89.954 765.608 90.098C765.284 90.242 765.008 90.446 764.78 90.71C764.552 90.962 764.378 91.256 764.258 91.592C764.138 91.928 764.078 92.288 764.078 92.672V98H762.71ZM772.503 98.18C771.699 98.18 770.979 98.03 770.343 97.73C769.707 97.43 769.203 97.034 768.831 96.542L769.785 95.714C770.133 96.134 770.541 96.452 771.009 96.668C771.489 96.884 772.023 96.992 772.611 96.992C772.911 96.992 773.181 96.962 773.421 96.902C773.661 96.83 773.871 96.728 774.051 96.596C774.231 96.464 774.369 96.308 774.465 96.128C774.561 95.948 774.609 95.75 774.609 95.534C774.609 95.138 774.435 94.808 774.087 94.544C773.931 94.436 773.709 94.328 773.421 94.22C773.133 94.1 772.785 93.986 772.377 93.878C771.705 93.686 771.147 93.494 770.703 93.302C770.259 93.098 769.911 92.864 769.659 92.6C769.479 92.384 769.341 92.15 769.245 91.898C769.161 91.646 769.119 91.37 769.119 91.07C769.119 90.686 769.197 90.332 769.353 90.008C769.521 89.684 769.749 89.402 770.037 89.162C770.337 88.91 770.685 88.724 771.081 88.604C771.489 88.472 771.927 88.406 772.395 88.406C772.839 88.406 773.277 88.466 773.709 88.586C774.141 88.706 774.543 88.88 774.915 89.108C775.287 89.336 775.605 89.606 775.869 89.918L775.041 90.818C774.813 90.578 774.561 90.362 774.285 90.17C774.009 89.978 773.715 89.828 773.403 89.72C773.103 89.612 772.791 89.558 772.467 89.558C772.179 89.558 771.909 89.594 771.657 89.666C771.417 89.738 771.207 89.84 771.027 89.972C770.859 90.092 770.727 90.242 770.631 90.422C770.547 90.602 770.505 90.8 770.505 91.016C770.505 91.196 770.541 91.358 770.613 91.502C770.685 91.646 770.787 91.772 770.919 91.88C771.087 92.012 771.321 92.138 771.621 92.258C771.933 92.366 772.317 92.48 772.773 92.6C773.301 92.744 773.745 92.894 774.105 93.05C774.477 93.194 774.783 93.368 775.023 93.572C775.347 93.812 775.575 94.088 775.707 94.4C775.851 94.712 775.923 95.066 775.923 95.462C775.923 95.99 775.773 96.458 775.473 96.866C775.185 97.274 774.783 97.598 774.267 97.838C773.751 98.066 773.163 98.18 772.503 98.18ZM782.197 98.18C781.261 98.18 780.427 97.97 779.695 97.55C778.975 97.13 778.405 96.548 777.985 95.804C777.577 95.06 777.373 94.214 777.373 93.266C777.373 92.33 777.577 91.496 777.985 90.764C778.405 90.032 778.975 89.456 779.695 89.036C780.427 88.616 781.261 88.406 782.197 88.406C783.121 88.406 783.943 88.616 784.663 89.036C785.395 89.456 785.965 90.032 786.373 90.764C786.793 91.496 787.003 92.33 787.003 93.266C787.003 94.214 786.793 95.06 786.373 95.804C785.965 96.548 785.395 97.13 784.663 97.55C783.943 97.97 783.121 98.18 782.197 98.18ZM782.197 96.902C782.857 96.902 783.445 96.746 783.961 96.434C784.477 96.11 784.879 95.678 785.167 95.138C785.455 94.586 785.599 93.962 785.599 93.266C785.599 92.57 785.455 91.952 785.167 91.412C784.879 90.872 784.477 90.452 783.961 90.152C783.445 89.84 782.857 89.684 782.197 89.684C781.537 89.684 780.943 89.84 780.415 90.152C779.899 90.452 779.491 90.878 779.191 91.43C778.903 91.97 778.765 92.582 778.777 93.266C778.765 93.962 778.903 94.586 779.191 95.138C779.491 95.678 779.899 96.11 780.415 96.434C780.943 96.746 781.537 96.902 782.197 96.902ZM788.972 98V88.604H790.304L790.358 90.566L790.142 90.656C790.262 90.248 790.496 89.876 790.844 89.54C791.192 89.204 791.606 88.934 792.086 88.73C792.578 88.514 793.082 88.406 793.598 88.406C794.294 88.406 794.876 88.544 795.344 88.82C795.812 89.096 796.166 89.522 796.406 90.098C796.646 90.674 796.766 91.406 796.766 92.294V98H795.398V92.366C795.398 91.742 795.314 91.232 795.146 90.836C794.99 90.428 794.744 90.128 794.408 89.936C794.072 89.744 793.658 89.654 793.166 89.666C792.758 89.666 792.38 89.738 792.032 89.882C791.684 90.014 791.384 90.2 791.132 90.44C790.88 90.68 790.682 90.956 790.538 91.268C790.394 91.58 790.322 91.916 790.322 92.276V98H789.656C789.572 98 789.476 98 789.368 98C789.26 98 789.128 98 788.972 98ZM803.015 98.18C802.199 98.18 801.461 97.97 800.801 97.55C800.141 97.118 799.619 96.536 799.235 95.804C798.851 95.06 798.659 94.22 798.659 93.284C798.659 92.336 798.857 91.496 799.253 90.764C799.649 90.032 800.177 89.456 800.837 89.036C801.509 88.616 802.259 88.406 803.087 88.406C803.579 88.406 804.035 88.478 804.455 88.622C804.875 88.766 805.247 88.97 805.571 89.234C805.907 89.486 806.183 89.786 806.399 90.134C806.627 90.47 806.783 90.836 806.867 91.232L806.471 91.034L806.525 88.604H807.875V98H806.507V95.696L806.867 95.462C806.783 95.822 806.621 96.17 806.381 96.506C806.141 96.83 805.847 97.118 805.499 97.37C805.163 97.622 804.779 97.82 804.347 97.964C803.927 98.108 803.483 98.18 803.015 98.18ZM803.321 96.884C803.945 96.884 804.503 96.734 804.995 96.434C805.487 96.122 805.871 95.696 806.147 95.156C806.435 94.604 806.579 93.98 806.579 93.284C806.579 92.588 806.435 91.97 806.147 91.43C805.871 90.89 805.487 90.464 804.995 90.152C804.503 89.84 803.945 89.684 803.321 89.684C802.685 89.684 802.121 89.84 801.629 90.152C801.149 90.464 800.765 90.89 800.477 91.43C800.201 91.97 800.063 92.588 800.063 93.284C800.063 93.968 800.201 94.586 800.477 95.138C800.753 95.678 801.137 96.104 801.629 96.416C802.121 96.728 802.685 96.884 803.321 96.884ZM810.541 98V84.68H811.891V98H810.541ZM814.908 98V88.604H816.258V98H814.908ZM815.574 86.57C815.238 86.57 814.98 86.486 814.8 86.318C814.632 86.138 814.548 85.898 814.548 85.598C814.548 85.298 814.638 85.058 814.818 84.878C814.998 84.698 815.25 84.608 815.574 84.608C815.898 84.608 816.15 84.698 816.33 84.878C816.51 85.046 816.6 85.286 816.6 85.598C816.6 85.886 816.51 86.12 816.33 86.3C816.15 86.48 815.898 86.57 815.574 86.57ZM818.685 98V96.83L823.869 89.522L824.031 89.81H818.685V88.604H825.291V89.756L820.125 97.046L819.945 96.776H825.489V98H818.685ZM831.52 98.18C830.584 98.18 829.75 97.976 829.018 97.568C828.298 97.16 827.734 96.59 827.326 95.858C826.918 95.126 826.714 94.286 826.714 93.338C826.714 92.606 826.828 91.946 827.056 91.358C827.284 90.758 827.602 90.236 828.01 89.792C828.43 89.348 828.928 89.006 829.504 88.766C830.08 88.514 830.704 88.388 831.376 88.388C832.012 88.388 832.588 88.502 833.104 88.73C833.632 88.958 834.082 89.276 834.454 89.684C834.838 90.08 835.126 90.554 835.318 91.106C835.51 91.658 835.594 92.264 835.57 92.924L835.552 93.554H827.722L827.524 92.42H834.526L834.202 92.726V92.294C834.178 91.862 834.052 91.448 833.824 91.052C833.596 90.644 833.272 90.314 832.852 90.062C832.444 89.81 831.952 89.684 831.376 89.684C830.704 89.684 830.122 89.822 829.63 90.098C829.138 90.362 828.76 90.758 828.496 91.286C828.232 91.814 828.1 92.468 828.1 93.248C828.1 93.992 828.244 94.64 828.532 95.192C828.82 95.732 829.228 96.152 829.756 96.452C830.296 96.752 830.944 96.902 831.7 96.902C832.144 96.902 832.582 96.83 833.014 96.686C833.458 96.53 833.944 96.23 834.472 95.786L835.174 96.758C834.898 97.034 834.568 97.28 834.184 97.496C833.8 97.7 833.38 97.868 832.924 98C832.468 98.12 832 98.18 831.52 98.18ZM841.304 98.18C840.452 98.18 839.684 97.97 839 97.55C838.328 97.13 837.794 96.554 837.398 95.822C837.014 95.078 836.822 94.238 836.822 93.302C836.822 92.354 837.02 91.514 837.416 90.782C837.812 90.038 838.346 89.456 839.018 89.036C839.69 88.616 840.446 88.406 841.286 88.406C841.754 88.406 842.204 88.478 842.636 88.622C843.08 88.766 843.476 88.97 843.824 89.234C844.172 89.486 844.46 89.78 844.688 90.116C844.916 90.44 845.054 90.782 845.102 91.142L844.688 90.998V84.68H846.038V98H844.706L844.67 95.66L845.012 95.534C844.964 95.87 844.826 96.2 844.598 96.524C844.382 96.836 844.106 97.118 843.77 97.37C843.434 97.622 843.05 97.82 842.618 97.964C842.198 98.108 841.76 98.18 841.304 98.18ZM841.502 96.938C842.126 96.938 842.684 96.782 843.176 96.47C843.668 96.158 844.052 95.726 844.328 95.174C844.616 94.622 844.76 93.992 844.76 93.284C844.76 92.576 844.616 91.952 844.328 91.412C844.052 90.86 843.668 90.428 843.176 90.116C842.684 89.792 842.126 89.63 841.502 89.63C840.854 89.63 840.284 89.792 839.792 90.116C839.312 90.428 838.928 90.86 838.64 91.412C838.364 91.952 838.226 92.576 838.226 93.284C838.226 93.98 838.364 94.604 838.64 95.156C838.916 95.708 839.3 96.146 839.792 96.47C840.284 96.782 840.854 96.938 841.502 96.938ZM857.852 98.18C856.916 98.18 856.082 97.976 855.35 97.568C854.63 97.16 854.066 96.59 853.658 95.858C853.25 95.126 853.046 94.286 853.046 93.338C853.046 92.606 853.16 91.946 853.388 91.358C853.616 90.758 853.934 90.236 854.342 89.792C854.762 89.348 855.26 89.006 855.836 88.766C856.412 88.514 857.036 88.388 857.708 88.388C858.344 88.388 858.92 88.502 859.436 88.73C859.964 88.958 860.414 89.276 860.786 89.684C861.17 90.08 861.458 90.554 861.65 91.106C861.842 91.658 861.926 92.264 861.902 92.924L861.884 93.554H854.054L853.856 92.42H860.858L860.534 92.726V92.294C860.51 91.862 860.384 91.448 860.156 91.052C859.928 90.644 859.604 90.314 859.184 90.062C858.776 89.81 858.284 89.684 857.708 89.684C857.036 89.684 856.454 89.822 855.962 90.098C855.47 90.362 855.092 90.758 854.828 91.286C854.564 91.814 854.432 92.468 854.432 93.248C854.432 93.992 854.576 94.64 854.864 95.192C855.152 95.732 855.56 96.152 856.088 96.452C856.628 96.752 857.276 96.902 858.032 96.902C858.476 96.902 858.914 96.83 859.346 96.686C859.79 96.53 860.276 96.23 860.804 95.786L861.506 96.758C861.23 97.034 860.9 97.28 860.516 97.496C860.132 97.7 859.712 97.868 859.256 98C858.8 98.12 858.332 98.18 857.852 98.18ZM870.157 98L866.899 93.806L866.737 93.608L862.831 88.604H864.541L867.745 92.726L867.925 92.96L871.849 98H870.157ZM862.759 98L866.593 93.05L867.403 94.022L864.379 98H862.759ZM868.015 93.392L867.241 92.438L869.977 88.604H871.615L868.015 93.392ZM873.453 101.96V88.604H874.803L874.839 90.89L874.587 90.926C874.695 90.47 874.929 90.056 875.289 89.684C875.649 89.3 876.087 88.994 876.603 88.766C877.119 88.538 877.665 88.424 878.241 88.424C879.081 88.424 879.831 88.634 880.491 89.054C881.163 89.474 881.697 90.05 882.093 90.782C882.489 91.514 882.687 92.354 882.687 93.302C882.687 94.238 882.495 95.072 882.111 95.804C881.727 96.536 881.199 97.118 880.527 97.55C879.855 97.97 879.099 98.18 878.259 98.18C877.671 98.18 877.113 98.06 876.585 97.82C876.057 97.58 875.607 97.268 875.235 96.884C874.863 96.488 874.617 96.062 874.497 95.606H874.821V101.96H873.453ZM878.043 96.884C878.679 96.884 879.243 96.728 879.735 96.416C880.227 96.104 880.617 95.678 880.905 95.138C881.193 94.598 881.337 93.986 881.337 93.302C881.337 92.606 881.193 91.988 880.905 91.448C880.617 90.908 880.227 90.482 879.735 90.17C879.243 89.858 878.679 89.702 878.043 89.702C877.407 89.702 876.837 89.858 876.333 90.17C875.841 90.47 875.451 90.89 875.163 91.43C874.875 91.97 874.731 92.588 874.731 93.284C874.731 93.98 874.875 94.598 875.163 95.138C875.451 95.678 875.841 96.104 876.333 96.416C876.837 96.728 877.407 96.884 878.043 96.884ZM888.79 98.18C887.854 98.18 887.02 97.976 886.288 97.568C885.568 97.16 885.004 96.59 884.596 95.858C884.188 95.126 883.984 94.286 883.984 93.338C883.984 92.606 884.098 91.946 884.326 91.358C884.554 90.758 884.872 90.236 885.28 89.792C885.7 89.348 886.198 89.006 886.774 88.766C887.35 88.514 887.974 88.388 888.646 88.388C889.282 88.388 889.858 88.502 890.374 88.73C890.902 88.958 891.352 89.276 891.724 89.684C892.108 90.08 892.396 90.554 892.588 91.106C892.78 91.658 892.864 92.264 892.84 92.924L892.822 93.554H884.992L884.794 92.42H891.796L891.472 92.726V92.294C891.448 91.862 891.322 91.448 891.094 91.052C890.866 90.644 890.542 90.314 890.122 90.062C889.714 89.81 889.222 89.684 888.646 89.684C887.974 89.684 887.392 89.822 886.9 90.098C886.408 90.362 886.03 90.758 885.766 91.286C885.502 91.814 885.37 92.468 885.37 93.248C885.37 93.992 885.514 94.64 885.802 95.192C886.09 95.732 886.498 96.152 887.026 96.452C887.566 96.752 888.214 96.902 888.97 96.902C889.414 96.902 889.852 96.83 890.284 96.686C890.728 96.53 891.214 96.23 891.742 95.786L892.444 96.758C892.168 97.034 891.838 97.28 891.454 97.496C891.07 97.7 890.65 97.868 890.194 98C889.738 98.12 889.27 98.18 888.79 98.18ZM894.757 98V88.604H896.107L896.143 91.106L895.999 90.764C896.131 90.344 896.341 89.954 896.629 89.594C896.929 89.234 897.283 88.946 897.691 88.73C898.099 88.514 898.549 88.406 899.041 88.406C899.245 88.406 899.437 88.424 899.617 88.46C899.797 88.484 899.947 88.52 900.067 88.568L899.689 90.08C899.533 90.008 899.371 89.96 899.203 89.936C899.047 89.9 898.897 89.882 898.753 89.882C898.345 89.882 897.979 89.954 897.655 90.098C897.331 90.242 897.055 90.446 896.827 90.71C896.599 90.962 896.425 91.256 896.305 91.592C896.185 91.928 896.125 92.288 896.125 92.672V98H894.757ZM901.832 98V88.604H903.182V98H901.832ZM902.498 86.57C902.162 86.57 901.904 86.486 901.724 86.318C901.556 86.138 901.472 85.898 901.472 85.598C901.472 85.298 901.562 85.058 901.742 84.878C901.922 84.698 902.174 84.608 902.498 84.608C902.822 84.608 903.074 84.698 903.254 84.878C903.434 85.046 903.524 85.286 903.524 85.598C903.524 85.886 903.434 86.12 903.254 86.3C903.074 86.48 902.822 86.57 902.498 86.57ZM910.27 98.18C909.334 98.18 908.5 97.976 907.768 97.568C907.048 97.16 906.484 96.59 906.076 95.858C905.668 95.126 905.464 94.286 905.464 93.338C905.464 92.606 905.578 91.946 905.806 91.358C906.034 90.758 906.352 90.236 906.76 89.792C907.18 89.348 907.678 89.006 908.254 88.766C908.83 88.514 909.454 88.388 910.126 88.388C910.762 88.388 911.338 88.502 911.854 88.73C912.382 88.958 912.832 89.276 913.204 89.684C913.588 90.08 913.876 90.554 914.068 91.106C914.26 91.658 914.344 92.264 914.32 92.924L914.302 93.554H906.472L906.274 92.42H913.276L912.952 92.726V92.294C912.928 91.862 912.802 91.448 912.574 91.052C912.346 90.644 912.022 90.314 911.602 90.062C911.194 89.81 910.702 89.684 910.126 89.684C909.454 89.684 908.872 89.822 908.38 90.098C907.888 90.362 907.51 90.758 907.246 91.286C906.982 91.814 906.85 92.468 906.85 93.248C906.85 93.992 906.994 94.64 907.282 95.192C907.57 95.732 907.978 96.152 908.506 96.452C909.046 96.752 909.694 96.902 910.45 96.902C910.894 96.902 911.332 96.83 911.764 96.686C912.208 96.53 912.694 96.23 913.222 95.786L913.924 96.758C913.648 97.034 913.318 97.28 912.934 97.496C912.55 97.7 912.13 97.868 911.674 98C911.218 98.12 910.75 98.18 910.27 98.18ZM916.238 98V88.604H917.57L917.624 90.566L917.408 90.656C917.528 90.248 917.762 89.876 918.11 89.54C918.458 89.204 918.872 88.934 919.352 88.73C919.844 88.514 920.348 88.406 920.864 88.406C921.56 88.406 922.142 88.544 922.61 88.82C923.078 89.096 923.432 89.522 923.672 90.098C923.912 90.674 924.032 91.406 924.032 92.294V98H922.664V92.366C922.664 91.742 922.58 91.232 922.412 90.836C922.256 90.428 922.01 90.128 921.674 89.936C921.338 89.744 920.924 89.654 920.432 89.666C920.024 89.666 919.646 89.738 919.298 89.882C918.95 90.014 918.65 90.2 918.398 90.44C918.146 90.68 917.948 90.956 917.804 91.268C917.66 91.58 917.588 91.916 917.588 92.276V98H916.922C916.838 98 916.742 98 916.634 98C916.526 98 916.394 98 916.238 98ZM930.569 98.18C929.681 98.18 928.889 97.97 928.193 97.55C927.497 97.118 926.945 96.536 926.537 95.804C926.141 95.06 925.943 94.22 925.943 93.284C925.943 92.348 926.141 91.514 926.537 90.782C926.945 90.038 927.497 89.456 928.193 89.036C928.889 88.616 929.687 88.406 930.587 88.406C931.391 88.406 932.123 88.568 932.783 88.892C933.443 89.204 933.971 89.642 934.367 90.206L933.575 91.178C933.347 90.878 933.071 90.614 932.747 90.386C932.435 90.158 932.093 89.984 931.721 89.864C931.361 89.732 931.001 89.666 930.641 89.666C930.005 89.666 929.435 89.828 928.931 90.152C928.427 90.464 928.025 90.89 927.725 91.43C927.437 91.97 927.293 92.588 927.293 93.284C927.293 93.98 927.437 94.604 927.725 95.156C928.025 95.696 928.427 96.122 928.931 96.434C929.435 96.746 929.999 96.902 930.623 96.902C930.983 96.902 931.337 96.848 931.685 96.74C932.033 96.62 932.363 96.452 932.675 96.236C932.987 96.02 933.275 95.75 933.539 95.426L934.331 96.398C933.923 96.938 933.377 97.37 932.693 97.694C932.009 98.018 931.301 98.18 930.569 98.18ZM940.224 98.18C939.288 98.18 938.454 97.976 937.722 97.568C937.002 97.16 936.438 96.59 936.03 95.858C935.622 95.126 935.418 94.286 935.418 93.338C935.418 92.606 935.532 91.946 935.76 91.358C935.988 90.758 936.306 90.236 936.714 89.792C937.134 89.348 937.632 89.006 938.208 88.766C938.784 88.514 939.408 88.388 940.08 88.388C940.716 88.388 941.292 88.502 941.808 88.73C942.336 88.958 942.786 89.276 943.158 89.684C943.542 90.08 943.83 90.554 944.022 91.106C944.214 91.658 944.298 92.264 944.274 92.924L944.256 93.554H936.426L936.228 92.42H943.23L942.906 92.726V92.294C942.882 91.862 942.756 91.448 942.528 91.052C942.3 90.644 941.976 90.314 941.556 90.062C941.148 89.81 940.656 89.684 940.08 89.684C939.408 89.684 938.826 89.822 938.334 90.098C937.842 90.362 937.464 90.758 937.2 91.286C936.936 91.814 936.804 92.468 936.804 93.248C936.804 93.992 936.948 94.64 937.236 95.192C937.524 95.732 937.932 96.152 938.46 96.452C939 96.752 939.648 96.902 940.404 96.902C940.848 96.902 941.286 96.83 941.718 96.686C942.162 96.53 942.648 96.23 943.176 95.786L943.878 96.758C943.602 97.034 943.272 97.28 942.888 97.496C942.504 97.7 942.084 97.868 941.628 98C941.172 98.12 940.704 98.18 940.224 98.18ZM949.269 98.18C948.465 98.18 947.745 98.03 947.109 97.73C946.473 97.43 945.969 97.034 945.597 96.542L946.551 95.714C946.899 96.134 947.307 96.452 947.775 96.668C948.255 96.884 948.789 96.992 949.377 96.992C949.677 96.992 949.947 96.962 950.187 96.902C950.427 96.83 950.637 96.728 950.817 96.596C950.997 96.464 951.135 96.308 951.231 96.128C951.327 95.948 951.375 95.75 951.375 95.534C951.375 95.138 951.201 94.808 950.853 94.544C950.697 94.436 950.475 94.328 950.187 94.22C949.899 94.1 949.551 93.986 949.143 93.878C948.471 93.686 947.913 93.494 947.469 93.302C947.025 93.098 946.677 92.864 946.425 92.6C946.245 92.384 946.107 92.15 946.011 91.898C945.927 91.646 945.885 91.37 945.885 91.07C945.885 90.686 945.963 90.332 946.119 90.008C946.287 89.684 946.515 89.402 946.803 89.162C947.103 88.91 947.451 88.724 947.847 88.604C948.255 88.472 948.693 88.406 949.161 88.406C949.605 88.406 950.043 88.466 950.475 88.586C950.907 88.706 951.309 88.88 951.681 89.108C952.053 89.336 952.371 89.606 952.635 89.918L951.807 90.818C951.579 90.578 951.327 90.362 951.051 90.17C950.775 89.978 950.481 89.828 950.169 89.72C949.869 89.612 949.557 89.558 949.233 89.558C948.945 89.558 948.675 89.594 948.423 89.666C948.183 89.738 947.973 89.84 947.793 89.972C947.625 90.092 947.493 90.242 947.397 90.422C947.313 90.602 947.271 90.8 947.271 91.016C947.271 91.196 947.307 91.358 947.379 91.502C947.451 91.646 947.553 91.772 947.685 91.88C947.853 92.012 948.087 92.138 948.387 92.258C948.699 92.366 949.083 92.48 949.539 92.6C950.067 92.744 950.511 92.894 950.871 93.05C951.243 93.194 951.549 93.368 951.789 93.572C952.113 93.812 952.341 94.088 952.473 94.4C952.617 94.712 952.689 95.066 952.689 95.462C952.689 95.99 952.539 96.458 952.239 96.866C951.951 97.274 951.549 97.598 951.033 97.838C950.517 98.066 949.929 98.18 949.269 98.18ZM955.542 98.18C955.218 98.18 954.966 98.084 954.786 97.892C954.618 97.7 954.534 97.424 954.534 97.064C954.534 96.74 954.624 96.476 954.804 96.272C954.996 96.056 955.242 95.948 955.542 95.948C955.866 95.948 956.112 96.05 956.28 96.254C956.46 96.446 956.55 96.716 956.55 97.064C956.55 97.4 956.454 97.67 956.262 97.874C956.082 98.078 955.842 98.18 955.542 98.18Z" fill="#BFBFBF"/>
</svg>
