<svg width="156" height="19" viewBox="0 0 156 19" fill="none" xmlns="http://www.w3.org/2000/svg">
<path d="M1.83138 14V1.4H3.77538V14H1.83138ZM2.69538 8.636V6.764H9.19338V8.636H2.69538ZM2.69538 3.272V1.4H10.0034V3.272H2.69538ZM16.1758 14.18C15.2518 14.18 14.4238 13.97 13.6918 13.55C12.9718 13.118 12.4018 12.536 11.9818 11.804C11.5618 11.06 11.3518 10.214 11.3518 9.266C11.3518 8.318 11.5618 7.478 11.9818 6.746C12.4018 6.002 12.9718 5.42 13.6918 5C14.4238 4.568 15.2518 4.352 16.1758 4.352C17.0878 4.352 17.9038 4.568 18.6238 5C19.3558 5.42 19.9318 6.002 20.3518 6.746C20.7718 7.478 20.9818 8.318 20.9818 9.266C20.9818 10.214 20.7718 11.06 20.3518 11.804C19.9318 12.536 19.3558 13.118 18.6238 13.55C17.9038 13.97 17.0878 14.18 16.1758 14.18ZM16.1758 12.488C16.7398 12.488 17.2438 12.35 17.6878 12.074C18.1318 11.786 18.4798 11.402 18.7318 10.922C18.9838 10.43 19.1038 9.878 19.0918 9.266C19.1038 8.642 18.9838 8.09 18.7318 7.61C18.4798 7.118 18.1318 6.734 17.6878 6.458C17.2438 6.182 16.7398 6.044 16.1758 6.044C15.6118 6.044 15.1018 6.188 14.6458 6.476C14.2018 6.752 13.8538 7.136 13.6018 7.628C13.3498 8.108 13.2298 8.654 13.2418 9.266C13.2298 9.878 13.3498 10.43 13.6018 10.922C13.8538 11.402 14.2018 11.786 14.6458 12.074C15.1018 12.35 15.6118 12.488 16.1758 12.488ZM23.0021 14V4.55H24.8741V7.52L24.6941 6.8C24.8261 6.344 25.0481 5.93 25.3601 5.558C25.6841 5.186 26.0501 4.892 26.4581 4.676C26.8781 4.46 27.3101 4.352 27.7541 4.352C27.9581 4.352 28.1501 4.37 28.3301 4.406C28.5221 4.442 28.6721 4.484 28.7801 4.532L28.2941 6.548C28.1501 6.488 27.9881 6.44 27.8081 6.404C27.6401 6.356 27.4721 6.332 27.3041 6.332C26.9801 6.332 26.6681 6.398 26.3681 6.53C26.0801 6.65 25.8221 6.824 25.5941 7.052C25.3781 7.268 25.2041 7.526 25.0721 7.826C24.9401 8.114 24.8741 8.432 24.8741 8.78V14H23.0021ZM34.2281 18.14C33.5561 18.14 32.8841 18.032 32.2121 17.816C31.5521 17.612 31.0181 17.342 30.6101 17.006L31.2941 15.566C31.5341 15.746 31.8161 15.902 32.1401 16.034C32.4641 16.178 32.8061 16.286 33.1661 16.358C33.5261 16.442 33.8801 16.484 34.2281 16.484C34.8881 16.484 35.4401 16.376 35.8841 16.16C36.3281 15.944 36.6641 15.626 36.8921 15.206C37.1201 14.786 37.2341 14.264 37.2341 13.64V11.822L37.4321 11.948C37.3721 12.32 37.1741 12.68 36.8381 13.028C36.5141 13.364 36.1061 13.64 35.6141 13.856C35.1221 14.072 34.6181 14.18 34.1021 14.18C33.2021 14.18 32.3981 13.97 31.6901 13.55C30.9941 13.118 30.4421 12.536 30.0341 11.804C29.6261 11.06 29.4221 10.214 29.4221 9.266C29.4221 8.318 29.6201 7.478 30.0161 6.746C30.4241 6.002 30.9761 5.42 31.6721 5C32.3801 4.568 33.1721 4.352 34.0481 4.352C34.4081 4.352 34.7561 4.4 35.0921 4.496C35.4281 4.58 35.7401 4.706 36.0281 4.874C36.3161 5.03 36.5741 5.204 36.8021 5.396C37.0301 5.588 37.2161 5.792 37.3601 6.008C37.5041 6.224 37.5941 6.428 37.6301 6.62L37.2341 6.764V4.55H39.0881V13.424C39.0881 14.18 38.9741 14.846 38.7461 15.422C38.5301 16.01 38.2121 16.502 37.7921 16.898C37.3721 17.306 36.8621 17.612 36.2621 17.816C35.6621 18.032 34.9841 18.14 34.2281 18.14ZM34.3001 12.47C34.8881 12.47 35.4101 12.332 35.8661 12.056C36.3221 11.78 36.6761 11.402 36.9281 10.922C37.1801 10.442 37.3061 9.89 37.3061 9.266C37.3061 8.642 37.1741 8.09 36.9101 7.61C36.6581 7.118 36.3041 6.734 35.8481 6.458C35.4041 6.182 34.8881 6.044 34.3001 6.044C33.7241 6.044 33.2081 6.188 32.7521 6.476C32.3081 6.752 31.9541 7.136 31.6901 7.628C31.4381 8.108 31.3121 8.654 31.3121 9.266C31.3121 9.878 31.4381 10.43 31.6901 10.922C31.9541 11.402 32.3081 11.78 32.7521 12.056C33.2081 12.332 33.7241 12.47 34.3001 12.47ZM45.9356 14.18C45.0116 14.18 44.1836 13.97 43.4516 13.55C42.7316 13.118 42.1616 12.536 41.7416 11.804C41.3216 11.06 41.1116 10.214 41.1116 9.266C41.1116 8.318 41.3216 7.478 41.7416 6.746C42.1616 6.002 42.7316 5.42 43.4516 5C44.1836 4.568 45.0116 4.352 45.9356 4.352C46.8476 4.352 47.6636 4.568 48.3836 5C49.1156 5.42 49.6916 6.002 50.1116 6.746C50.5316 7.478 50.7416 8.318 50.7416 9.266C50.7416 10.214 50.5316 11.06 50.1116 11.804C49.6916 12.536 49.1156 13.118 48.3836 13.55C47.6636 13.97 46.8476 14.18 45.9356 14.18ZM45.9356 12.488C46.4996 12.488 47.0036 12.35 47.4476 12.074C47.8916 11.786 48.2396 11.402 48.4916 10.922C48.7436 10.43 48.8636 9.878 48.8516 9.266C48.8636 8.642 48.7436 8.09 48.4916 7.61C48.2396 7.118 47.8916 6.734 47.4476 6.458C47.0036 6.182 46.4996 6.044 45.9356 6.044C45.3716 6.044 44.8616 6.188 44.4056 6.476C43.9616 6.752 43.6136 7.136 43.3616 7.628C43.1096 8.108 42.9896 8.654 43.0016 9.266C42.9896 9.878 43.1096 10.43 43.3616 10.922C43.6136 11.402 43.9616 11.786 44.4056 12.074C44.8616 12.35 45.3716 12.488 45.9356 12.488ZM53.9318 14V2.138H55.7858V14H53.9318ZM51.9698 6.35V4.55H57.9818V6.35H51.9698ZM65.1829 14V1.4H70.3129C70.9969 1.4 71.6149 1.574 72.1669 1.922C72.7309 2.258 73.1809 2.72 73.5169 3.308C73.8529 3.896 74.0209 4.55 74.0209 5.27C74.0209 5.99 73.8529 6.644 73.5169 7.232C73.1809 7.82 72.7309 8.294 72.1669 8.654C71.6149 9.002 70.9969 9.176 70.3129 9.176H67.1269V14H65.1829ZM67.1269 7.304H70.2769C70.6009 7.304 70.8949 7.214 71.1589 7.034C71.4229 6.842 71.6329 6.596 71.7889 6.296C71.9569 5.984 72.0409 5.642 72.0409 5.27C72.0409 4.898 71.9569 4.562 71.7889 4.262C71.6329 3.962 71.4229 3.722 71.1589 3.542C70.8949 3.362 70.6009 3.272 70.2769 3.272H67.1269V7.304ZM79.5834 14.18C78.8034 14.18 78.0894 13.964 77.4414 13.532C76.8054 13.1 76.2954 12.512 75.9114 11.768C75.5274 11.024 75.3354 10.184 75.3354 9.248C75.3354 8.3 75.5274 7.46 75.9114 6.728C76.3074 5.984 76.8354 5.402 77.4954 4.982C78.1674 4.562 78.9174 4.352 79.7454 4.352C80.2374 4.352 80.6874 4.424 81.0954 4.568C81.5034 4.712 81.8574 4.916 82.1574 5.18C82.4694 5.432 82.7214 5.726 82.9134 6.062C83.1174 6.398 83.2434 6.758 83.2914 7.142L82.8774 6.998V4.55H84.7494V14H82.8774V11.75L83.3094 11.624C83.2374 11.948 83.0874 12.266 82.8594 12.578C82.6434 12.878 82.3614 13.148 82.0134 13.388C81.6774 13.628 81.2994 13.82 80.8794 13.964C80.4714 14.108 80.0394 14.18 79.5834 14.18ZM80.0694 12.47C80.6334 12.47 81.1314 12.332 81.5634 12.056C81.9954 11.78 82.3314 11.402 82.5714 10.922C82.8234 10.43 82.9494 9.872 82.9494 9.248C82.9494 8.636 82.8234 8.09 82.5714 7.61C82.3314 7.13 81.9954 6.752 81.5634 6.476C81.1314 6.2 80.6334 6.062 80.0694 6.062C79.5174 6.062 79.0254 6.2 78.5934 6.476C78.1734 6.752 77.8374 7.13 77.5854 7.61C77.3454 8.09 77.2254 8.636 77.2254 9.248C77.2254 9.872 77.3454 10.43 77.5854 10.922C77.8374 11.402 78.1734 11.78 78.5934 12.056C79.0254 12.332 79.5174 12.47 80.0694 12.47ZM90.488 14.18C89.696 14.18 88.982 14.042 88.346 13.766C87.71 13.49 87.182 13.082 86.762 12.542L88.022 11.462C88.382 11.882 88.772 12.188 89.192 12.38C89.624 12.56 90.11 12.65 90.65 12.65C90.866 12.65 91.064 12.626 91.244 12.578C91.436 12.518 91.598 12.434 91.73 12.326C91.874 12.218 91.982 12.092 92.054 11.948C92.126 11.792 92.162 11.624 92.162 11.444C92.162 11.132 92.048 10.88 91.82 10.688C91.7 10.604 91.508 10.514 91.244 10.418C90.992 10.31 90.662 10.202 90.254 10.094C89.558 9.914 88.988 9.71 88.544 9.482C88.1 9.254 87.758 8.996 87.518 8.708C87.338 8.48 87.206 8.234 87.122 7.97C87.038 7.694 86.996 7.394 86.996 7.07C86.996 6.674 87.08 6.314 87.248 5.99C87.428 5.654 87.668 5.366 87.968 5.126C88.28 4.874 88.64 4.682 89.048 4.55C89.468 4.418 89.912 4.352 90.38 4.352C90.824 4.352 91.262 4.412 91.694 4.532C92.138 4.652 92.546 4.826 92.918 5.054C93.29 5.282 93.602 5.552 93.854 5.864L92.792 7.034C92.564 6.806 92.312 6.608 92.036 6.44C91.772 6.26 91.502 6.122 91.226 6.026C90.95 5.93 90.698 5.882 90.47 5.882C90.218 5.882 89.99 5.906 89.786 5.954C89.582 6.002 89.408 6.074 89.264 6.17C89.132 6.266 89.03 6.386 88.958 6.53C88.886 6.674 88.85 6.836 88.85 7.016C88.862 7.172 88.898 7.322 88.958 7.466C89.03 7.598 89.126 7.712 89.246 7.808C89.378 7.904 89.576 8.006 89.84 8.114C90.104 8.222 90.44 8.324 90.848 8.42C91.448 8.576 91.94 8.75 92.324 8.942C92.72 9.122 93.032 9.332 93.26 9.572C93.5 9.8 93.668 10.064 93.764 10.364C93.86 10.664 93.908 11 93.908 11.372C93.908 11.912 93.752 12.398 93.44 12.83C93.14 13.25 92.732 13.58 92.216 13.82C91.7 14.06 91.124 14.18 90.488 14.18ZM99.1013 14.18C98.3093 14.18 97.5953 14.042 96.9593 13.766C96.3233 13.49 95.7953 13.082 95.3753 12.542L96.6353 11.462C96.9953 11.882 97.3853 12.188 97.8053 12.38C98.2373 12.56 98.7233 12.65 99.2633 12.65C99.4793 12.65 99.6773 12.626 99.8573 12.578C100.049 12.518 100.211 12.434 100.343 12.326C100.487 12.218 100.595 12.092 100.667 11.948C100.739 11.792 100.775 11.624 100.775 11.444C100.775 11.132 100.661 10.88 100.433 10.688C100.313 10.604 100.121 10.514 99.8573 10.418C99.6053 10.31 99.2753 10.202 98.8673 10.094C98.1713 9.914 97.6013 9.71 97.1573 9.482C96.7133 9.254 96.3713 8.996 96.1313 8.708C95.9513 8.48 95.8193 8.234 95.7353 7.97C95.6513 7.694 95.6093 7.394 95.6093 7.07C95.6093 6.674 95.6933 6.314 95.8613 5.99C96.0413 5.654 96.2813 5.366 96.5813 5.126C96.8933 4.874 97.2533 4.682 97.6613 4.55C98.0813 4.418 98.5253 4.352 98.9933 4.352C99.4373 4.352 99.8753 4.412 100.307 4.532C100.751 4.652 101.159 4.826 101.531 5.054C101.903 5.282 102.215 5.552 102.467 5.864L101.405 7.034C101.177 6.806 100.925 6.608 100.649 6.44C100.385 6.26 100.115 6.122 99.8393 6.026C99.5633 5.93 99.3113 5.882 99.0833 5.882C98.8313 5.882 98.6033 5.906 98.3993 5.954C98.1953 6.002 98.0213 6.074 97.8773 6.17C97.7453 6.266 97.6433 6.386 97.5713 6.53C97.4993 6.674 97.4633 6.836 97.4633 7.016C97.4753 7.172 97.5113 7.322 97.5713 7.466C97.6433 7.598 97.7393 7.712 97.8593 7.808C97.9913 7.904 98.1893 8.006 98.4533 8.114C98.7173 8.222 99.0533 8.324 99.4613 8.42C100.061 8.576 100.553 8.75 100.937 8.942C101.333 9.122 101.645 9.332 101.873 9.572C102.113 9.8 102.281 10.064 102.377 10.364C102.473 10.664 102.521 11 102.521 11.372C102.521 11.912 102.365 12.398 102.053 12.83C101.753 13.25 101.345 13.58 100.829 13.82C100.313 14.06 99.7373 14.18 99.1013 14.18ZM106.887 14L103.665 4.55L105.537 4.532L107.841 11.606L107.427 11.57L109.929 6.044H111.045L113.565 11.588L113.079 11.624L115.401 4.55H117.273L114.087 14H112.809L110.181 7.988L110.595 8.042L108.147 14H106.887ZM122.945 14.18C122.021 14.18 121.193 13.97 120.461 13.55C119.741 13.118 119.171 12.536 118.751 11.804C118.331 11.06 118.121 10.214 118.121 9.266C118.121 8.318 118.331 7.478 118.751 6.746C119.171 6.002 119.741 5.42 120.461 5C121.193 4.568 122.021 4.352 122.945 4.352C123.857 4.352 124.673 4.568 125.393 5C126.125 5.42 126.701 6.002 127.121 6.746C127.541 7.478 127.751 8.318 127.751 9.266C127.751 10.214 127.541 11.06 127.121 11.804C126.701 12.536 126.125 13.118 125.393 13.55C124.673 13.97 123.857 14.18 122.945 14.18ZM122.945 12.488C123.509 12.488 124.013 12.35 124.457 12.074C124.901 11.786 125.249 11.402 125.501 10.922C125.753 10.43 125.873 9.878 125.861 9.266C125.873 8.642 125.753 8.09 125.501 7.61C125.249 7.118 124.901 6.734 124.457 6.458C124.013 6.182 123.509 6.044 122.945 6.044C122.381 6.044 121.871 6.188 121.415 6.476C120.971 6.752 120.623 7.136 120.371 7.628C120.119 8.108 119.999 8.654 120.011 9.266C119.999 9.878 120.119 10.43 120.371 10.922C120.623 11.402 120.971 11.786 121.415 12.074C121.871 12.35 122.381 12.488 122.945 12.488ZM129.772 14V4.55H131.644V7.52L131.464 6.8C131.596 6.344 131.818 5.93 132.13 5.558C132.454 5.186 132.82 4.892 133.228 4.676C133.648 4.46 134.08 4.352 134.524 4.352C134.728 4.352 134.92 4.37 135.1 4.406C135.292 4.442 135.442 4.484 135.55 4.532L135.064 6.548C134.92 6.488 134.758 6.44 134.578 6.404C134.41 6.356 134.242 6.332 134.074 6.332C133.75 6.332 133.438 6.398 133.138 6.53C132.85 6.65 132.592 6.824 132.364 7.052C132.148 7.268 131.974 7.526 131.842 7.826C131.71 8.114 131.644 8.432 131.644 8.78V14H129.772ZM140.569 14.18C139.705 14.18 138.931 13.97 138.247 13.55C137.575 13.118 137.041 12.536 136.645 11.804C136.249 11.06 136.051 10.214 136.051 9.266C136.051 8.318 136.243 7.478 136.627 6.746C137.023 6.002 137.557 5.42 138.229 5C138.901 4.568 139.663 4.352 140.515 4.352C140.983 4.352 141.433 4.43 141.865 4.586C142.309 4.73 142.705 4.934 143.053 5.198C143.401 5.45 143.671 5.732 143.863 6.044C144.067 6.344 144.169 6.65 144.169 6.962L143.629 6.998V0.68H145.483V14H143.629V11.75H143.989C143.989 12.038 143.893 12.326 143.701 12.614C143.509 12.89 143.251 13.148 142.927 13.388C142.615 13.628 142.249 13.82 141.829 13.964C141.421 14.108 141.001 14.18 140.569 14.18ZM140.821 12.578C141.385 12.578 141.883 12.434 142.315 12.146C142.747 11.858 143.083 11.468 143.323 10.976C143.575 10.472 143.701 9.902 143.701 9.266C143.701 8.63 143.575 8.066 143.323 7.574C143.083 7.07 142.747 6.674 142.315 6.386C141.883 6.098 141.385 5.954 140.821 5.954C140.257 5.954 139.759 6.098 139.327 6.386C138.895 6.674 138.553 7.07 138.301 7.574C138.061 8.066 137.941 8.63 137.941 9.266C137.941 9.902 138.061 10.472 138.301 10.976C138.553 11.468 138.895 11.858 139.327 12.146C139.759 12.434 140.257 12.578 140.821 12.578ZM150.213 10.202L149.745 7.664C150.213 7.544 150.633 7.412 151.005 7.268C151.377 7.112 151.695 6.95 151.959 6.782C152.235 6.602 152.463 6.41 152.643 6.206C152.823 6.002 152.955 5.786 153.039 5.558C153.135 5.318 153.183 5.066 153.183 4.802C153.183 4.454 153.087 4.142 152.895 3.866C152.715 3.59 152.463 3.374 152.139 3.218C151.815 3.062 151.449 2.984 151.041 2.984C150.561 2.984 150.093 3.152 149.637 3.488C149.193 3.812 148.809 4.274 148.485 4.874L147.135 3.74C147.651 2.948 148.263 2.336 148.971 1.904C149.691 1.46 150.441 1.238 151.221 1.238C151.977 1.238 152.655 1.394 153.255 1.706C153.855 2.018 154.329 2.444 154.677 2.984C155.037 3.524 155.217 4.13 155.217 4.802C155.217 5.198 155.133 5.588 154.965 5.972C154.809 6.344 154.581 6.698 154.281 7.034C153.981 7.37 153.627 7.67 153.219 7.934C152.823 8.198 152.385 8.414 151.905 8.582L151.599 10.202H150.213ZM149.583 12.848C149.583 12.452 149.697 12.128 149.925 11.876C150.153 11.624 150.453 11.498 150.825 11.498C151.221 11.498 151.527 11.618 151.743 11.858C151.959 12.086 152.067 12.416 152.067 12.848C152.067 13.244 151.953 13.568 151.725 13.82C151.497 14.072 151.197 14.198 150.825 14.198C150.429 14.198 150.123 14.084 149.907 13.856C149.691 13.616 149.583 13.28 149.583 12.848Z" fill="white"/>
<path d="M0.0673828 16.25H155.937V17.15H0.0673828V16.25Z" fill="white"/>
</svg>
